<svg width="203" height="44" viewBox="0 0 203 44" fill="none" xmlns="http://www.w3.org/2000/svg">
<path d="M54.6543 15.8926C54.6543 17.5592 54.2018 18.8613 53.2969 19.7988C52.3919 20.7363 51.1875 21.2051 49.6836 21.2051C48.1797 21.2051 46.9785 20.7363 46.0801 19.7988C45.1816 18.8613 44.7324 17.5592 44.7324 15.8926V11.9082C44.7324 10.248 45.1816 8.94596 46.0801 8.00195C46.9785 7.05143 48.1764 6.57617 49.6738 6.57617C51.1712 6.57617 52.3757 7.05143 53.2871 8.00195C54.1986 8.94596 54.6543 10.248 54.6543 11.9082V15.8926ZM51.8906 11.8887C51.8906 10.873 51.7018 10.1081 51.3242 9.59375C50.9466 9.07292 50.3965 8.8125 49.6738 8.8125C48.9447 8.8125 48.3978 9.06966 48.0332 9.58398C47.6686 10.0983 47.4863 10.8665 47.4863 11.8887V15.8926C47.4863 16.9212 47.6719 17.6927 48.043 18.207C48.4141 18.7214 48.9609 18.9785 49.6836 18.9785C50.3997 18.9785 50.9466 18.7214 51.3242 18.207C51.7018 17.6927 51.8906 16.9212 51.8906 15.8926V11.8887ZM58.8242 10.4336L58.9414 11.8887C59.2344 11.3678 59.5924 10.9642 60.0156 10.6777C60.4453 10.3848 60.9173 10.2383 61.4316 10.2383C62.3105 10.2383 63.0007 10.5768 63.502 11.2539C64.0098 11.931 64.2637 12.9954 64.2637 14.4473V21H61.4805V14.4473C61.4805 13.7181 61.3763 13.207 61.168 12.9141C60.9661 12.6146 60.6504 12.4648 60.2207 12.4648C59.9733 12.4648 59.7454 12.5299 59.5371 12.6602C59.3288 12.7904 59.153 12.9694 59.0098 13.1973V21H56.2363V10.4336H58.8242ZM68.9121 21H66.1387V5.76562H68.9121V21ZM73.7559 21H70.9824V10.4336H73.7559V21ZM73.7559 7.88477H70.9824V5.76562H73.7559V7.88477ZM78.2383 10.4336L78.3555 11.8887C78.6484 11.3678 79.0065 10.9642 79.4297 10.6777C79.8594 10.3848 80.3314 10.2383 80.8457 10.2383C81.7246 10.2383 82.4147 10.5768 82.916 11.2539C83.4238 11.931 83.6777 12.9954 83.6777 14.4473V21H80.8945V14.4473C80.8945 13.7181 80.7904 13.207 80.582 12.9141C80.3802 12.6146 80.0645 12.4648 79.6348 12.4648C79.3874 12.4648 79.1595 12.5299 78.9512 12.6602C78.7428 12.7904 78.5671 12.9694 78.4238 13.1973V21H75.6504V10.4336H78.2383ZM89.5371 21.2051C88.209 21.2051 87.1543 20.7689 86.373 19.8965C85.5918 19.0241 85.2012 17.9238 85.2012 16.5957V15.1113C85.2012 13.6855 85.5625 12.5169 86.2852 11.6055C87.0143 10.694 88.0202 10.2383 89.3027 10.2383C90.5397 10.2383 91.4967 10.6517 92.1738 11.4785C92.8509 12.3053 93.1895 13.4316 93.1895 14.8574V16.5566H87.9648V16.5957C87.9648 17.2923 88.1211 17.8652 88.4336 18.3145C88.7526 18.7637 89.2311 18.9883 89.8691 18.9883C90.39 18.9883 90.8132 18.9297 91.1387 18.8125C91.4642 18.6953 91.8516 18.5 92.3008 18.2266L93.0039 19.9941C92.6393 20.3457 92.151 20.6354 91.5391 20.8633C90.9336 21.0911 90.2663 21.2051 89.5371 21.2051ZM89.3027 12.4648C88.86 12.4648 88.5345 12.6667 88.3262 13.0703C88.1178 13.474 88.0007 14.0176 87.9746 14.7012H90.4648V14.3105C90.4648 13.7246 90.3737 13.2721 90.1914 12.9531C90.0091 12.6276 89.7129 12.4648 89.3027 12.4648ZM45.0742 42V27.7812H49.2637C50.7285 27.7812 51.8711 28.1068 52.6914 28.7578C53.5182 29.4089 53.9316 30.3789 53.9316 31.668C53.9316 32.3451 53.7819 32.9473 53.4824 33.4746C53.1829 33.9954 52.7337 34.3861 52.1348 34.6465C52.8835 34.8223 53.4368 35.2031 53.7949 35.7891C54.153 36.375 54.332 37.0618 54.332 37.8496C54.332 39.2103 53.9414 40.2422 53.1602 40.9453C52.3854 41.6484 51.2721 42 49.8203 42H45.0742ZM47.8574 35.7305V39.7832H49.8203C50.4062 39.7832 50.8424 39.6204 51.1289 39.2949C51.4219 38.9694 51.5684 38.4844 51.5684 37.8398C51.5684 37.1628 51.4447 36.6419 51.1973 36.2773C50.9499 35.9128 50.5527 35.7305 50.0059 35.7305H47.8574ZM47.8574 33.7871H49.3906C49.957 33.7741 50.39 33.6113 50.6895 33.2988C50.9954 32.9798 51.1484 32.5241 51.1484 31.9316C51.1484 31.2676 50.9922 30.7826 50.6797 30.4766C50.3672 30.1641 49.8952 30.0078 49.2637 30.0078H47.8574V33.7871ZM55.6602 36.0723C55.6602 34.653 56.0345 33.4941 56.7832 32.5957C57.5384 31.6908 58.5931 31.2383 59.9473 31.2383C61.3014 31.2383 62.3561 31.6908 63.1113 32.5957C63.8665 33.4941 64.2441 34.653 64.2441 36.0723V37.3809C64.2441 38.8132 63.8665 39.9753 63.1113 40.8672C62.3561 41.7591 61.3047 42.2051 59.957 42.2051C58.5964 42.2051 57.5384 41.7591 56.7832 40.8672C56.0345 39.9753 55.6602 38.8132 55.6602 37.3809V36.0723ZM58.4238 37.3809C58.4238 38.1947 58.5378 38.8327 58.7656 39.2949C58.9935 39.7572 59.3906 39.9883 59.957 39.9883C60.5039 39.9883 60.8913 39.7572 61.1191 39.2949C61.3535 38.8262 61.4707 38.1882 61.4707 37.3809V36.0723C61.4707 35.278 61.3535 34.6465 61.1191 34.1777C60.8913 33.7025 60.5007 33.4648 59.9473 33.4648C59.3939 33.4648 59 33.7025 58.7656 34.1777C58.5378 34.653 58.4238 35.2845 58.4238 36.0723V37.3809ZM65.3867 36.0723C65.3867 34.653 65.7611 33.4941 66.5098 32.5957C67.265 31.6908 68.3197 31.2383 69.6738 31.2383C71.028 31.2383 72.0827 31.6908 72.8379 32.5957C73.5931 33.4941 73.9707 34.653 73.9707 36.0723V37.3809C73.9707 38.8132 73.5931 39.9753 72.8379 40.8672C72.0827 41.7591 71.0312 42.2051 69.6836 42.2051C68.3229 42.2051 67.265 41.7591 66.5098 40.8672C65.7611 39.9753 65.3867 38.8132 65.3867 37.3809V36.0723ZM68.1504 37.3809C68.1504 38.1947 68.2643 38.8327 68.4922 39.2949C68.7201 39.7572 69.1172 39.9883 69.6836 39.9883C70.2305 39.9883 70.6178 39.7572 70.8457 39.2949C71.0801 38.8262 71.1973 38.1882 71.1973 37.3809V36.0723C71.1973 35.278 71.0801 34.6465 70.8457 34.1777C70.6178 33.7025 70.2272 33.4648 69.6738 33.4648C69.1204 33.4648 68.7266 33.7025 68.4922 34.1777C68.2643 34.653 68.1504 35.2845 68.1504 36.0723V37.3809ZM78.7266 37.6055H78.2188V42H75.4453V26.7656H78.2188V35.418H78.6777L80.4648 31.4336H83.6582L80.9043 36.1895L84.1172 42H80.9434L78.7266 37.6055ZM87.457 31.4336L87.5645 32.7812C87.8444 32.2865 88.196 31.9056 88.6191 31.6387C89.0423 31.3717 89.5273 31.2383 90.0742 31.2383C90.6081 31.2383 91.0736 31.3815 91.4707 31.668C91.8678 31.9479 92.1706 32.3776 92.3789 32.957C92.6523 32.4102 93.0039 31.987 93.4336 31.6875C93.8633 31.388 94.3646 31.2383 94.9375 31.2383C95.8099 31.2383 96.4967 31.5996 96.998 32.3223C97.5059 33.0384 97.7598 34.1354 97.7598 35.6133V42H94.9766V35.6133C94.9766 34.7995 94.8887 34.2396 94.7129 33.9336C94.5371 33.6211 94.2637 33.4648 93.8926 33.4648C93.6257 33.4648 93.388 33.543 93.1797 33.6992C92.9714 33.8555 92.7988 34.0703 92.6621 34.3438C92.6686 34.4674 92.6751 34.5911 92.6816 34.7148C92.6882 34.832 92.6914 34.9557 92.6914 35.0859V42H89.9277V35.6133C89.9277 34.806 89.8366 34.2461 89.6543 33.9336C89.4785 33.6211 89.2018 33.4648 88.8242 33.4648C88.5703 33.4648 88.3424 33.5299 88.1406 33.6602C87.9453 33.7839 87.776 33.9596 87.6328 34.1875V42H84.8691V31.4336H87.457ZM104.732 42C104.654 41.8242 104.583 41.6322 104.518 41.4238C104.459 41.2155 104.413 41.0039 104.381 40.7891C104.12 41.2188 103.801 41.5638 103.424 41.8242C103.053 42.0781 102.62 42.2051 102.125 42.2051C101.253 42.2051 100.553 41.9186 100.025 41.3457C99.5046 40.7728 99.2441 40.0078 99.2441 39.0508C99.2441 38.0156 99.5762 37.2116 100.24 36.6387C100.911 36.0658 101.904 35.7793 103.219 35.7793H104.264V34.9199C104.264 34.4056 104.169 34.0117 103.98 33.7383C103.798 33.4583 103.521 33.3184 103.15 33.3184C102.838 33.3184 102.604 33.429 102.447 33.6504C102.291 33.8717 102.213 34.194 102.213 34.6172L99.5273 34.6074L99.498 34.5488C99.4655 33.6309 99.804 32.8496 100.514 32.2051C101.23 31.5605 102.171 31.2383 103.336 31.2383C104.436 31.2383 105.328 31.5605 106.012 32.2051C106.702 32.8431 107.047 33.7546 107.047 34.9395V39.2168C107.047 39.7376 107.083 40.2227 107.154 40.6719C107.226 41.1211 107.337 41.5638 107.486 42H104.732ZM102.926 40.1152C103.206 40.1152 103.463 40.0404 103.697 39.8906C103.938 39.7409 104.127 39.5488 104.264 39.3145V37.3711H103.219C102.796 37.3711 102.49 37.5176 102.301 37.8105C102.112 38.1035 102.018 38.4746 102.018 38.9238C102.018 39.2754 102.099 39.5618 102.262 39.7832C102.424 40.0046 102.646 40.1152 102.926 40.1152ZM112.086 37.6055H111.578V42H108.805V26.7656H111.578V35.418H112.037L113.824 31.4336H117.018L114.264 36.1895L117.477 42H114.303L112.086 37.6055ZM122.135 42.2051C120.807 42.2051 119.752 41.7689 118.971 40.8965C118.189 40.0241 117.799 38.9238 117.799 37.5957V36.1113C117.799 34.6855 118.16 33.5169 118.883 32.6055C119.612 31.694 120.618 31.2383 121.9 31.2383C123.137 31.2383 124.094 31.6517 124.771 32.4785C125.449 33.3053 125.787 34.4316 125.787 35.8574V37.5566H120.562V37.5957C120.562 38.2923 120.719 38.8652 121.031 39.3145C121.35 39.7637 121.829 39.9883 122.467 39.9883C122.988 39.9883 123.411 39.9297 123.736 39.8125C124.062 39.6953 124.449 39.5 124.898 39.2266L125.602 40.9941C125.237 41.3457 124.749 41.6354 124.137 41.8633C123.531 42.0911 122.864 42.2051 122.135 42.2051ZM121.9 33.4648C121.458 33.4648 121.132 33.6667 120.924 34.0703C120.715 34.474 120.598 35.0176 120.572 35.7012H123.062V35.3105C123.062 34.7246 122.971 34.2721 122.789 33.9531C122.607 33.6276 122.311 33.4648 121.9 33.4648ZM132.174 33.9629L131.129 33.9336C130.836 33.9336 130.592 34.0052 130.396 34.1484C130.208 34.2917 130.061 34.4935 129.957 34.7539V42H127.184V31.4336H129.771L129.879 32.8496L129.928 32.8691C130.097 32.3613 130.331 31.9642 130.631 31.6777C130.937 31.3848 131.292 31.2383 131.695 31.2383C131.819 31.2383 131.949 31.2513 132.086 31.2773C132.229 31.2969 132.353 31.3229 132.457 31.3555L132.174 33.9629ZM138.189 39.2363C138.189 38.9368 138.072 38.6797 137.838 38.4648C137.604 38.2435 137.154 37.9733 136.49 37.6543C135.429 37.2572 134.632 36.8079 134.098 36.3066C133.57 35.8053 133.307 35.1543 133.307 34.3535C133.307 33.4941 133.645 32.7617 134.322 32.1562C135.006 31.5443 135.908 31.2383 137.027 31.2383C138.199 31.2383 139.133 31.5508 139.83 32.1758C140.527 32.8008 140.862 33.5983 140.836 34.5684L140.807 34.627H138.131C138.131 34.1842 138.04 33.8327 137.857 33.5723C137.675 33.3118 137.395 33.1816 137.018 33.1816C136.718 33.1816 136.464 33.2826 136.256 33.4844C136.048 33.6862 135.943 33.9303 135.943 34.2168C135.943 34.5293 136.048 34.7832 136.256 34.9785C136.464 35.1673 136.917 35.4277 137.613 35.7598C138.72 36.1374 139.54 36.5866 140.074 37.1074C140.608 37.6217 140.875 38.2988 140.875 39.1387C140.875 40.0371 140.517 40.7728 139.801 41.3457C139.085 41.9186 138.144 42.2051 136.979 42.2051C135.761 42.2051 134.798 41.8503 134.088 41.1406C133.378 40.431 133.04 39.6302 133.072 38.7383L133.092 38.6797H135.631C135.644 39.2396 135.774 39.6432 136.021 39.8906C136.269 40.138 136.611 40.2617 137.047 40.2617C137.418 40.2617 137.701 40.1706 137.896 39.9883C138.092 39.806 138.189 39.5553 138.189 39.2363Z" fill="white"/>
<path d="M32.9437 5H25.8127L20.9116 13.7754L24.4731 20.1444L32.9437 5Z" fill="white"/>
<path d="M19.5 21.8209C20.6631 21.8209 21.7861 21.9893 22.8529 22.2861L13.1872 5H6.05615L15.7861 22.3984C16.9572 22.0214 18.2086 21.8209 19.5 21.8209Z" fill="white"/>
<path d="M19.5002 24.3075C14.0697 24.3075 9.6499 28.7273 9.6499 34.1577C9.6499 39.5882 14.0697 44 19.5002 44C24.9307 44 29.3504 39.5802 29.3504 34.1497C29.3504 28.7192 24.9307 24.3075 19.5002 24.3075ZM16.5964 27.4117C15.9948 28.246 15.4173 29.3048 15.0242 30.5962H13.0831C13.8692 29.1845 15.1044 28.0615 16.5964 27.4117ZM12.4654 36.2353C12.2729 35.5775 12.1606 34.8797 12.1606 34.1497C12.1606 33.4278 12.2649 32.7299 12.4654 32.0642H14.6713C14.559 32.7139 14.5028 33.4037 14.5028 34.1497C14.5028 34.8957 14.567 35.5855 14.6713 36.2353H12.4654ZM13.0831 37.7112H15.0162C15.4093 39.0027 15.9948 40.0615 16.5884 40.8957C15.1044 40.246 13.8692 39.123 13.0831 37.7112ZM18.7622 41.1684C18.0483 40.4465 17.1579 39.3075 16.5804 37.7032H18.7622V41.1684ZM18.7622 36.2353H16.1713C16.043 35.5936 15.9708 34.9037 15.9708 34.1497C15.9708 33.3957 16.043 32.7059 16.1633 32.0642H18.7542V36.2353H18.7622ZM18.7622 30.5962H16.5724C17.1499 28.9759 18.0483 27.8369 18.7622 27.123V30.5962ZM25.9173 30.5962H23.9841C23.5911 29.3048 23.0055 28.246 22.4119 27.4117C23.8959 28.0615 25.1312 29.1845 25.9173 30.5962ZM20.2381 27.131C20.952 27.8529 21.8424 28.992 22.42 30.5962H20.2381V27.131ZM20.2381 32.0722H22.829C22.9574 32.7139 23.0296 33.4037 23.0296 34.1577C23.0296 34.9118 22.9574 35.6016 22.8371 36.2433H20.2462V32.0722H20.2381ZM20.2381 37.7112H22.428C21.8504 39.3315 20.952 40.4706 20.2381 41.1845V37.7112ZM22.4039 40.8957C23.0055 40.0615 23.5831 39.0027 23.9761 37.7112H25.9173C25.1312 39.123 23.8959 40.246 22.4039 40.8957ZM26.8397 34.1497C26.8397 34.8716 26.7355 35.5695 26.5349 36.2353H24.329C24.4413 35.5855 24.4975 34.8957 24.4975 34.1497C24.4975 33.4037 24.4333 32.7139 24.329 32.0642H26.5349C26.7355 32.7299 26.8397 33.4278 26.8397 34.1497Z" fill="white"/>
</svg>
