<?xml version="1.0" encoding="UTF-8" standalone="no"?>
<svg
   xmlns:dc="http://purl.org/dc/elements/1.1/"
   xmlns:cc="http://creativecommons.org/ns#"
   xmlns:rdf="http://www.w3.org/1999/02/22-rdf-syntax-ns#"
   xmlns:svg="http://www.w3.org/2000/svg"
   xmlns="http://www.w3.org/2000/svg"
   xmlns:sodipodi="http://sodipodi.sourceforge.net/DTD/sodipodi-0.dtd"
   xmlns:inkscape="http://www.inkscape.org/namespaces/inkscape"
   width="126.40085"
   height="39"
   viewBox="0 0 126.40085 39"
   version="1.1"
   id="svg50"
   sodipodi:docname="logo.svg"
   style="fill:none"
   inkscape:version="0.92.4 (5da689c313, 2019-01-14)">
  <metadata
     id="metadata56">
    <rdf:RDF>
      <cc:Work
         rdf:about="">
        <dc:format>image/svg+xml</dc:format>
        <dc:type
           rdf:resource="http://purl.org/dc/dcmitype/StillImage" />
        <dc:title></dc:title>
      </cc:Work>
    </rdf:RDF>
  </metadata>
  <defs
     id="defs54" />
  <sodipodi:namedview
     pagecolor="#ffffff"
     bordercolor="#666666"
     borderopacity="1"
     objecttolerance="10"
     gridtolerance="10"
     guidetolerance="10"
     inkscape:pageopacity="0"
     inkscape:pageshadow="2"
     inkscape:window-width="1366"
     inkscape:window-height="705"
     id="namedview52"
     showgrid="false"
     inkscape:zoom="5.9655172"
     inkscape:cx="95.44385"
     inkscape:cy="15.294798"
     inkscape:window-x="-8"
     inkscape:window-y="-8"
     inkscape:window-maximized="1"
     inkscape:current-layer="svg50" />
  <path
     d="m 48.59815,10.8926 c 0,1.6666 -0.4525,2.9687 -1.3574,3.9062 -0.905,0.9375 -2.1094,1.4063 -3.6133,1.4063 -1.5039,0 -2.7051,-0.4688 -3.6035,-1.4063 -0.8985,-0.9375 -1.3477,-2.2396 -1.3477,-3.9062 V 6.9082 c 0,-1.6602 0.4492,-2.96224 1.3477,-3.90625 0.8984,-0.95052 2.0963,-1.42578 3.5937,-1.42578 1.4974,0 2.7019,0.47526 3.6133,1.42578 0.9115,0.94401 1.3672,2.24605 1.3672,3.90625 z m -2.7637,-4.0039 c 0,-1.0157 -0.1888,-1.7806 -0.5664,-2.29495 -0.3776,-0.52083 -0.9277,-0.78125 -1.6504,-0.78125 -0.7291,0 -1.276,0.25716 -1.6406,0.77148 -0.3646,0.51432 -0.5469,1.28252 -0.5469,2.30472 v 4.0039 c 0,1.0286 0.1856,1.8001 0.5567,2.3144 0.3711,0.5144 0.9179,0.7715 1.6406,0.7715 0.7161,0 1.263,-0.2571 1.6406,-0.7715 0.3776,-0.5143 0.5664,-1.2858 0.5664,-2.3144 z m 6.9336,-1.4551 0.1172,1.4551 c 0.293,-0.5209 0.651,-0.9245 1.0742,-1.211 0.4297,-0.2929 0.9017,-0.4394 1.416,-0.4394 0.8789,0 1.5691,0.3385 2.0704,1.0156 0.5078,0.6771 0.7617,1.7415 0.7617,3.1934 V 16 h -2.7832 V 9.4473 c 0,-0.7292 -0.1042,-1.2403 -0.3125,-1.5332 -0.2019,-0.2995 -0.5176,-0.4493 -0.9473,-0.4493 -0.2474,0 -0.4753,0.0651 -0.6836,0.1954 -0.2083,0.1302 -0.3841,0.3092 -0.5273,0.5371 V 16 h -2.7735 V 5.4336 Z M 62.85595,16 h -2.7734 V 0.76562 h 2.7734 z m 4.8438,0 h -2.7735 V 5.4336 h 2.7735 z m 0,-13.11523 h -2.7735 V 0.76562 h 2.7735 z m 4.4824,2.54883 0.1172,1.4551 c 0.2929,-0.5209 0.651,-0.9245 1.0742,-1.211 0.4297,-0.2929 0.9017,-0.4394 1.416,-0.4394 0.8789,0 1.569,0.3385 2.0703,1.0156 0.5078,0.6771 0.7617,1.7415 0.7617,3.1934 V 16 h -2.7832 V 9.4473 c 0,-0.7292 -0.1041,-1.2403 -0.3125,-1.5332 -0.2018,-0.2995 -0.5175,-0.4493 -0.9472,-0.4493 -0.2474,0 -0.4753,0.0651 -0.6836,0.1954 -0.2084,0.1302 -0.3841,0.3092 -0.5274,0.5371 V 16 h -2.7734 V 5.4336 Z m 11.2988,10.7715 c -1.3281,0 -2.3828,-0.4362 -3.1641,-1.3086 -0.7812,-0.8724 -1.1718,-1.9727 -1.1718,-3.3008 v -1.4844 c 0,-1.4258 0.3613,-2.5944 1.084,-3.5058 0.7291,-0.9115 1.735,-1.3672 3.0175,-1.3672 1.237,0 2.194,0.4134 2.8711,1.2402 0.6771,0.8268 1.0157,1.9531 1.0157,3.3789 v 1.6992 h -5.2247 v 0.0391 c 0,0.6966 0.1563,1.2695 0.4688,1.7188 0.319,0.4492 0.7975,0.6738 1.4355,0.6738 0.5209,0 0.9441,-0.0586 1.2696,-0.1758 0.3255,-0.1172 0.7129,-0.3125 1.1621,-0.5859 l 0.7031,1.7675 c -0.3646,0.3516 -0.8529,0.6413 -1.4648,0.8692 -0.6055,0.2278 -1.2728,0.3418 -2.002,0.3418 z m -0.2344,-8.7403 c -0.4427,0 -0.7682,0.2019 -0.9765,0.6055 -0.2084,0.4037 -0.3255,0.9473 -0.3516,1.6309 h 2.4902 V 9.3105 c 0,-0.5859 -0.0911,-1.0384 -0.2734,-1.3574 -0.1823,-0.3255 -0.4785,-0.4883 -0.8887,-0.4883 z M 39.01805,37 V 22.7812 h 4.1895 c 1.4648,0 2.6074,0.3256 3.4277,0.9766 0.8268,0.6511 1.2402,1.6211 1.2402,2.9102 0,0.6771 -0.1497,1.2793 -0.4492,1.8066 -0.2995,0.5208 -0.7487,0.9115 -1.3476,1.1719 0.7487,0.1758 1.302,0.5566 1.6601,1.1426 0.3581,0.5859 0.5371,1.2727 0.5371,2.0605 0,1.3607 -0.3906,2.3926 -1.1718,3.0957 C 46.32925,36.6484 45.21595,37 43.76415,37 Z m 2.7832,-6.2695 v 4.0527 h 1.9629 c 0.5859,0 1.0221,-0.1628 1.3086,-0.4883 0.293,-0.3255 0.4395,-0.8105 0.4395,-1.4551 0,-0.677 -0.1237,-1.1979 -0.3711,-1.5625 -0.2474,-0.3645 -0.6446,-0.5468 -1.1914,-0.5468 z m 0,-1.9434 h 1.5332 c 0.5664,-0.013 0.9994,-0.1758 1.2989,-0.4883 0.3059,-0.319 0.4589,-0.7747 0.4589,-1.3672 0,-0.664 -0.1562,-1.149 -0.4687,-1.455 -0.3125,-0.3125 -0.7845,-0.4688 -1.416,-0.4688 h -1.4063 z m 7.8028,2.2852 c 0,-1.4193 0.3743,-2.5782 1.123,-3.4766 0.7552,-0.9049 1.8099,-1.3574 3.1641,-1.3574 1.3541,0 2.4088,0.4525 3.164,1.3574 0.7552,0.8984 1.1328,2.0573 1.1328,3.4766 v 1.3086 c 0,1.4323 -0.3776,2.5944 -1.1328,3.4863 -0.7552,0.8919 -1.8066,1.3379 -3.1543,1.3379 -1.3606,0 -2.4186,-0.446 -3.1738,-1.3379 -0.7487,-0.8919 -1.123,-2.054 -1.123,-3.4863 z m 2.7636,1.3086 c 0,0.8138 0.114,1.4518 0.3418,1.914 0.2279,0.4623 0.625,0.6934 1.1914,0.6934 0.5469,0 0.9343,-0.2311 1.1621,-0.6934 0.2344,-0.4687 0.3516,-1.1067 0.3516,-1.914 v -1.3086 c 0,-0.7943 -0.1172,-1.4258 -0.3516,-1.8946 -0.2278,-0.4752 -0.6184,-0.7129 -1.1718,-0.7129 -0.5534,0 -0.9473,0.2377 -1.1817,0.7129 -0.2278,0.4753 -0.3418,1.1068 -0.3418,1.8946 z m 6.9629,-1.3086 c 0,-1.4193 0.3744,-2.5782 1.1231,-3.4766 0.7552,-0.9049 1.8099,-1.3574 3.164,-1.3574 1.3542,0 2.4089,0.4525 3.1641,1.3574 0.7552,0.8984 1.1328,2.0573 1.1328,3.4766 v 1.3086 c 0,1.4323 -0.3776,2.5944 -1.1328,3.4863 -0.7552,0.8919 -1.8067,1.3379 -3.1543,1.3379 -1.3607,0 -2.4186,-0.446 -3.1738,-1.3379 -0.7487,-0.8919 -1.1231,-2.054 -1.1231,-3.4863 z m 2.7637,1.3086 c 0,0.8138 0.1139,1.4518 0.3418,1.914 0.2279,0.4623 0.625,0.6934 1.1914,0.6934 0.5469,0 0.9342,-0.2311 1.1621,-0.6934 0.2344,-0.4687 0.3516,-1.1067 0.3516,-1.914 v -1.3086 c 0,-0.7943 -0.1172,-1.4258 -0.3516,-1.8946 -0.2279,-0.4752 -0.6185,-0.7129 -1.1719,-0.7129 -0.5534,0 -0.9472,0.2377 -1.1816,0.7129 -0.2279,0.4753 -0.3418,1.1068 -0.3418,1.8946 z m 10.5762,0.2246 h -0.5078 V 37 h -2.7735 V 21.7656 h 2.7735 v 8.6524 h 0.4589 l 1.7871,-3.9844 h 3.1934 l -2.7539,4.7559 3.2129,5.8105 h -3.1738 z m 8.7304,-6.1719 0.1075,1.3476 c 0.2799,-0.4947 0.6315,-0.8756 1.0546,-1.1425 0.4232,-0.267 0.9082,-0.4004 1.4551,-0.4004 0.5339,0 0.9994,0.1432 1.3965,0.4297 0.3971,0.2799 0.6999,0.7096 0.9082,1.289 0.2734,-0.5468 0.625,-0.97 1.0547,-1.2695 0.4297,-0.2995 0.931,-0.4492 1.5039,-0.4492 0.8724,0 1.5592,0.3613 2.0605,1.084 0.5079,0.7161 0.7618,1.8131 0.7618,3.291 V 37 h -2.7832 v -6.3867 c 0,-0.8138 -0.0879,-1.3737 -0.2637,-1.6797 -0.1758,-0.3125 -0.4492,-0.4688 -0.8203,-0.4688 -0.2669,0 -0.5046,0.0782 -0.7129,0.2344 -0.2083,0.1563 -0.3809,0.3711 -0.5176,0.6446 0.0065,0.1236 0.013,0.2473 0.0195,0.371 0.0066,0.1172 0.0098,0.2409 0.0098,0.3711 V 37 h -2.7637 v -6.3867 c 0,-0.8073 -0.0911,-1.3672 -0.2734,-1.6797 -0.1758,-0.3125 -0.4525,-0.4688 -0.8301,-0.4688 -0.2539,0 -0.4818,0.0651 -0.6836,0.1954 -0.1953,0.1237 -0.3646,0.2994 -0.5078,0.5273 V 37 h -2.7637 V 26.4336 Z M 98.67585,37 c -0.078,-0.1758 -0.149,-0.3678 -0.214,-0.5762 -0.059,-0.2083 -0.105,-0.4199 -0.137,-0.6347 -0.261,0.4297 -0.58,0.7747 -0.957,1.0351 -0.371,0.2539 -0.804,0.3809 -1.299,0.3809 -0.872,0 -1.572,-0.2865 -2.1,-0.8594 -0.5204,-0.5729 -0.7809,-1.3379 -0.7809,-2.2949 0,-1.0352 0.3321,-1.8392 0.9959,-2.4121 0.671,-0.5729 1.664,-0.8594 2.979,-0.8594 h 1.045 v -0.8594 c 0,-0.5143 -0.095,-0.9082 -0.284,-1.1816 -0.182,-0.28 -0.459,-0.4199 -0.83,-0.4199 -0.312,0 -0.546,0.1106 -0.703,0.332 -0.156,0.2213 -0.234,0.5436 -0.234,0.9668 l -2.6857,-0.0098 -0.0293,-0.0586 c -0.0325,-0.9179 0.306,-1.6992 1.016,-2.3437 0.716,-0.6446 1.657,-0.9668 2.822,-0.9668 1.1,0 1.992,0.3222 2.676,0.9668 0.69,0.638 1.035,1.5495 1.035,2.7344 v 4.2773 c 0,0.5208 0.036,1.0059 0.107,1.4551 0.072,0.4492 0.183,0.8919 0.332,1.3281 z m -1.806,-1.8848 c 0.28,0 0.537,-0.0748 0.771,-0.2246 0.241,-0.1497 0.43,-0.3418 0.567,-0.5761 v -1.9434 h -1.045 c -0.423,0 -0.729,0.1465 -0.918,0.4394 -0.189,0.293 -0.283,0.6641 -0.283,1.1133 0,0.3516 0.081,0.638 0.244,0.8594 0.162,0.2214 0.384,0.332 0.664,0.332 z m 9.16,-2.5097 h -0.508 V 37 h -2.773 V 21.7656 h 2.773 v 8.6524 h 0.459 l 1.787,-3.9844 h 3.194 l -2.754,4.7559 3.213,5.8105 h -3.174 z m 10.049,4.5996 c -1.328,0 -2.383,-0.4362 -3.164,-1.3086 -0.782,-0.8724 -1.172,-1.9727 -1.172,-3.3008 v -1.4844 c 0,-1.4258 0.361,-2.5944 1.084,-3.5058 0.729,-0.9115 1.735,-1.3672 3.017,-1.3672 1.237,0 2.194,0.4134 2.871,1.2402 0.678,0.8268 1.016,1.9531 1.016,3.3789 v 1.6992 h -5.225 v 0.0391 c 0,0.6966 0.157,1.2695 0.469,1.7188 0.319,0.4492 0.798,0.6738 1.436,0.6738 0.521,0 0.944,-0.0586 1.269,-0.1758 0.326,-0.1172 0.713,-0.3125 1.162,-0.5859 l 0.704,1.7675 c -0.365,0.3516 -0.853,0.6413 -1.465,0.8692 -0.606,0.2278 -1.273,0.3418 -2.002,0.3418 z m -0.235,-8.7403 c -0.442,0 -0.768,0.2019 -0.976,0.6055 -0.209,0.4037 -0.326,0.9473 -0.352,1.6309 h 2.49 v -0.3907 c 0,-0.5859 -0.091,-1.0384 -0.273,-1.3574 -0.182,-0.3255 -0.478,-0.4883 -0.889,-0.4883 z m 10.274,0.4981 -1.045,-0.0293 c -0.293,0 -0.537,0.0716 -0.733,0.2148 -0.188,0.1433 -0.335,0.3451 -0.439,0.6055 V 37 h -2.773 V 26.4336 h 2.587 l 0.108,1.416 0.049,0.0195 c 0.169,-0.5078 0.403,-0.9049 0.703,-1.1914 0.306,-0.2929 0.661,-0.4394 1.064,-0.4394 0.124,0 0.254,0.013 0.391,0.039 0.143,0.0196 0.267,0.0456 0.371,0.0782 z"
     id="path42"
     inkscape:connector-curvature="0"
     style="fill:#ffffff" />
  <path
     d="m 26.88765,0 h -7.131 l -4.9011,8.7754 3.5615,6.369 z"
     id="path44"
     inkscape:connector-curvature="0"
     style="fill:#ffffff" />
  <path
     d="m 13.44385,16.8209 c 1.1631,0 2.2861,0.1684 3.3529,0.4652 L 7.13105,0 H 0 l 9.72995,17.3984 c 1.1711,-0.377 2.4225,-0.5775 3.7139,-0.5775 z"
     id="path46"
     inkscape:connector-curvature="0"
     style="fill:#ffffff" />
  <path
     d="m 13.44385,19.3075 c -5.4304,0 -9.85022,4.4198 -9.85022,9.8502 0,5.4305 4.41982,9.8423 9.85022,9.8423 5.4305,0 9.8503,-4.4198 9.8503,-9.8503 0,-5.4305 -4.4198,-9.8422 -9.8503,-9.8422 z m -2.9037,3.1042 c -0.6016,0.8343 -1.1791,1.8931 -1.5722,3.1845 h -1.9412 c 0.7861,-1.4117 2.0214,-2.5347 3.5134,-3.1845 z m -4.131,8.8236 c -0.1925,-0.6578 -0.3048,-1.3556 -0.3048,-2.0856 0,-0.7219 0.1043,-1.4198 0.3048,-2.0855 h 2.2059 c -0.1123,0.6497 -0.1685,1.3395 -0.1685,2.0855 0,0.746 0.0642,1.4358 0.1685,2.0856 z m 0.6176,1.4759 h 1.9332 c 0.393,1.2915 0.9786,2.3503 1.5722,3.1845 -1.484,-0.6497 -2.7193,-1.7727 -3.5054,-3.1845 z m 5.6792,3.4572 c -0.7139,-0.7219 -1.6043,-1.8609 -2.1818,-3.4652 h 2.1818 z m 0,-4.9331 h -2.5909 c -0.1284,-0.6417 -0.2006,-1.3316 -0.2006,-2.0856 0,-0.754 0.0722,-1.4438 0.1925,-2.0855 h 2.591 v 4.1711 z m 0,-5.6391 h -2.1899 c 0.5776,-1.6203 1.476,-2.7593 2.1899,-3.4732 z m 7.1551,0 h -1.9332 c -0.393,-1.2914 -0.9786,-2.3502 -1.5722,-3.1845 1.484,0.6498 2.7193,1.7728 3.5054,3.1845 z m -5.6792,-3.4652 c 0.7139,0.7219 1.6043,1.861 2.1818,3.4652 h -2.1818 z m 0,4.9412 h 2.5909 c 0.1284,0.6417 0.2006,1.3315 0.2006,2.0855 0,0.7541 -0.0722,1.4439 -0.1926,2.0856 h -2.5909 v -4.1711 z m 0,5.639 h 2.1899 c -0.5776,1.6203 -1.476,2.7594 -2.1899,3.4733 z m 2.1658,3.1845 c 0.6016,-0.8342 1.1791,-1.893 1.5722,-3.1845 h 1.9412 c -0.7861,1.4118 -2.0214,2.5348 -3.5134,3.1845 z m 4.4358,-6.746 c 0,0.7219 -0.1043,1.4198 -0.3048,2.0856 h -2.2059 c 0.1123,-0.6498 0.1685,-1.3396 0.1685,-2.0856 0,-0.746 -0.0642,-1.4358 -0.1685,-2.0855 h 2.2059 c 0.2005,0.6657 0.3048,1.3636 0.3048,2.0855 z"
     id="path48"
     inkscape:connector-curvature="0"
     style="fill:#ffffff" />
</svg>
