<svg width="0" height="0" class="hidden">
  <symbol viewBox="0 0 64 46" xmlns="http://www.w3.org/2000/svg" id="kubok">
    <path d="M62.52 19.65a1.198 1.198 0 0 0-1.433.134 41.24 41.24 0 0 1-2.934 2.41c.208-.697.39-1.382.546-2.053 1.777-1.022 3.199-2.688 4.13-4.845.858-1.991 1.268-4.347 1.152-6.635a1.194 1.194 0 0 0-.92-1.108 1.197 1.197 0 0 0-1.328.571 39.677 39.677 0 0 1-2.07 3.234 33.65 33.65 0 0 0-.121-2.53c0-.019 0-.038-.002-.057A38.6 38.6 0 0 0 58.066.753a.94.94 0 1 0-1.803.532 37.013 37.013 0 0 1 1.092 4.91A40.024 40.024 0 0 0 54.46 3.67a1.203 1.203 0 0 0-1.412-.06 1.202 1.202 0 0 0-.499 1.32c1.06 3.894 2.828 7.216 5.126 9.645-.053.682-.13 1.383-.234 2.1a38.466 38.466 0 0 0-1.998-3.14 1.206 1.206 0 0 0-2.188.643c-.115 2.746.157 6.75 2.058 10.47-.245.62-.518 1.252-.82 1.89a37.74 37.74 0 0 0-1.004-3.56 1.206 1.206 0 0 0-1.133-.82h-.01c-.51 0-.964.32-1.134.8-1.265 3.572-1.635 7.301-1.057 10.56A32.025 32.025 0 0 1 48.81 35.1c.09-1.244.12-2.473.085-3.709a1.206 1.206 0 0 0-2.174-.684c-2.248 3.049-3.714 6.511-4.164 9.805l-.253-.686a1.384 1.384 0 0 0-1.294-.9h-3.17a18.747 18.747 0 0 1-1.175-2.232.94.94 0 1 0-1.718.764c.225.504.466.994.722 1.467h-7.34c1.476-2.734 2.23-5.634 2.613-7.942a6.118 6.118 0 0 0 2.117 0c.117.708.255 1.407.418 2.085a.94.94 0 1 0 1.828-.438 28.374 28.374 0 0 1-.443-2.264 6.25 6.25 0 0 0 .799-.5 16.046 16.046 0 0 0 2.617-2.423 11.496 11.496 0 0 0 6.514-2.709 11.572 11.572 0 0 0 4.08-8.826V12.73c0-.368-.143-.713-.404-.973a1.364 1.364 0 0 0-.969-.4h-.003l-5.257.011v-.506a1.486 1.486 0 0 0 1.21-1.457V7.15c0-.819-.666-1.484-1.484-1.484H22.034c-.818 0-1.483.665-1.483 1.484v2.254c0 .724.522 1.328 1.21 1.457v.506l-5.257-.011H16.5c-.366 0-.71.142-.969.4-.26.26-.403.605-.403.973v3.178a11.57 11.57 0 0 0 4.08 8.826 11.495 11.495 0 0 0 6.514 2.709 16.05 16.05 0 0 0 2.617 2.423c.256.19.524.355.799.5-.38 2.447-1.201 5.683-2.979 8.559h-3.086c-.575 0-1.095.362-1.294.901l-.281.763-.05-.035c-.443-3.306-1.912-6.785-4.17-9.847a1.204 1.204 0 0 0-2.173.684 37.031 37.031 0 0 0 .084 3.71 32.12 32.12 0 0 1-1.343-1.582c.577-3.259.208-6.988-1.057-10.56a1.207 1.207 0 0 0-2.278.02 37.766 37.766 0 0 0-1.004 3.56 32.237 32.237 0 0 1-.82-1.89c1.901-3.72 2.174-7.724 2.058-10.47a1.206 1.206 0 0 0-2.188-.643 38.373 38.373 0 0 0-1.998 3.14 31.92 31.92 0 0 1-.234-2.1c2.298-2.43 4.067-5.751 5.126-9.645a1.202 1.202 0 0 0-.499-1.32 1.203 1.203 0 0 0-1.412.06 40.041 40.041 0 0 0-2.895 2.523 36.91 36.91 0 0 1 1.092-4.91.94.94 0 1 0-1.803-.53A38.59 38.59 0 0 0 4.46 8.771c-.002.018-.001.037-.002.055a33.117 33.117 0 0 0-.12 2.532 39.727 39.727 0 0 1-2.071-3.234A1.197 1.197 0 0 0 .94 7.552a1.194 1.194 0 0 0-.92 1.109c-.117 2.287.293 4.644 1.151 6.634.931 2.158 2.353 3.823 4.13 4.845.156.672.338 1.357.547 2.053a41.19 41.19 0 0 1-2.935-2.41 1.198 1.198 0 0 0-1.433-.134 1.195 1.195 0 0 0-.54 1.33c1.024 3.936 3.992 8.237 8.368 9.228a33.65 33.65 0 0 0 1.114 1.795 42.068 42.068 0 0 1-3.503-1.44 1.199 1.199 0 0 0-1.408.292c-.355.4-.406.974-.127 1.429 2.026 3.304 5.848 6.416 10.09 6.416.201 0 .402-.007.604-.021a36.97 36.97 0 0 0 3.95 3.181c.26.183.529.364.8.543l-.613 1.663a1.38 1.38 0 0 0 1.293 1.856h21.067a1.38 1.38 0 0 0 1.294-1.856l-.63-1.707a36.979 36.979 0 0 0 4.683-3.68 8.7 8.7 0 0 0 .603.022c4.242 0 8.065-3.113 10.09-6.417.28-.456.229-1.03-.127-1.429a1.198 1.198 0 0 0-1.407-.291 42.067 42.067 0 0 1-3.503 1.439c.4-.602.77-1.2 1.114-1.795 4.375-.99 7.343-5.292 8.367-9.227a1.195 1.195 0 0 0-.54-1.33zm-3.253-2.483a39.433 39.433 0 0 0 .144-1.059 34.917 34.917 0 0 0 .136-1.35c.004-.055.01-.11.013-.164a40.35 40.35 0 0 0 2.431-3.306c-.31 2.255-1.192 4.52-2.755 6.087l.03-.208zm-17.028-.317v-3.602l4.754-.01v2.67a9.695 9.695 0 0 1-7.125 9.355 16.198 16.198 0 0 0 2.371-8.413zm-21.813 6.453a9.696 9.696 0 0 1-3.418-7.395v-2.67l4.753.01v3.602c0 2.996.844 5.906 2.37 8.413a9.64 9.64 0 0 1-3.706-1.96zm3.214-6.453v-5.962h1.227a.94.94 0 1 0 0-1.88H22.43v-1.46h19.14V9.01H29.24a.94.94 0 1 0 0 1.88h11.12v5.96a14.34 14.34 0 0 1-5.814 11.504 4.274 4.274 0 0 1-5.093 0A14.342 14.342 0 0 1 23.64 16.85zM2.01 11.288a40.346 40.346 0 0 0 2.43 3.306l.015.167a29.003 29.003 0 0 0 .098 1.026 34.087 34.087 0 0 0 .182 1.383c.01.069.019.137.03.205-1.563-1.567-2.444-3.832-2.755-6.087zm6.844 5.204c-.11 1.98-.48 3.865-1.085 5.55l-.048-.152a37.952 37.952 0 0 1-.35-1.221 31.056 31.056 0 0 1-.225-.898l-.032-.14a38.095 38.095 0 0 1 1.74-3.139zM6.22 11.284a30.799 30.799 0 0 1 .06-1.607l.023-.318.012-.153A39.655 39.655 0 0 1 8.938 6.63c-.716 1.94-1.634 3.677-2.721 5.15v-.164c0-.111 0-.222.002-.332zM3.614 22.845a41.78 41.78 0 0 0 3.274 2.37l.06.15a33.34 33.34 0 0 0 .958 2.182l.088.185c-1.93-1.017-3.424-2.875-4.38-4.887zm8.036 2.86c.465 1.9.655 3.8.562 5.59l-.088-.13a32.318 32.318 0 0 1-1.157-1.843l-.075-.13c.204-1.2.455-2.356.758-3.487zM8.476 33.28a42.54 42.54 0 0 0 3.816 1.308l.097.12a30.048 30.048 0 0 0 .862 1.038 30.896 30.896 0 0 0 .71.797l.132.145c-2.146-.417-4.118-1.762-5.617-3.408zm10.61 5.52a35.687 35.687 0 0 1-1.221-1.036 31.643 31.643 0 0 1-.46-.418l-.107-.1a36.805 36.805 0 0 1-.306-3.577c1.011 1.696 1.765 3.474 2.22 5.23l-.126-.1zm3.141 5.243l1.195-3.237h17.24l1.194 3.237H22.227zm24.475-6.798a25.152 25.152 0 0 1-.805.729 33.263 33.263 0 0 1-.983.825l-.126.1c.455-1.756 1.209-3.534 2.22-5.23a36.755 36.755 0 0 1-.306 3.576zm5.648-11.539c.304 1.131.554 2.286.758 3.487l-.073.126a33.436 33.436 0 0 1-1.158 1.847l-.089.13c-.093-1.79.097-3.69.562-5.59zm3.174 7.574c-1.499 1.646-3.47 2.99-5.617 3.408l.143-.157a33.66 33.66 0 0 0 1.554-1.814l.104-.13c1.296-.376 2.56-.81 3.816-1.307zm-.462-26.65a39.58 39.58 0 0 1 2.624 2.576l.013.156a28.233 28.233 0 0 1 .067 1.269 34.77 34.77 0 0 1 .017 1.15c-1.087-1.474-2.004-3.21-2.72-5.15zm.085 9.863a38.131 38.131 0 0 1 1.74 3.139c-.01.046-.02.093-.032.14a25.557 25.557 0 0 1-.224.896 33.523 33.523 0 0 1-.35 1.221l-.048.153c-.607-1.685-.976-3.57-1.086-5.55zm.86 11.239l.086-.184a34.12 34.12 0 0 0 .958-2.184l.06-.149a41.782 41.782 0 0 0 3.275-2.37c-.956 2.012-2.45 3.87-4.38 4.887z"></path>
  </symbol>
  <symbol viewBox="0 0 17 17" fill="none" xmlns="http://www.w3.org/2000/svg" id="exclamation">
    <path d="M14.51 2.49A8.501 8.501 0 1 0 2.49 14.511 8.501 8.501 0 0 0 14.51 2.49zm-4.902 9.706a1.109 1.109 0 1 1-2.217 0V7.76a1.109 1.109 0 1 1 2.217 0v4.435zM8.48 5.866c-.639 0-1.064-.453-1.051-1.011-.013-.585.412-1.024 1.064-1.024.652 0 1.064.439 1.078 1.024 0 .558-.426 1.01-1.091 1.01z"
      fill="#BCBCBC"></path>
  </symbol>
  <symbol viewBox="0 0 23 23" xmlns="http://www.w3.org/2000/svg" id="ico-user">
    <path d="M19.632 3.368A11.425 11.425 0 0 0 11.5 0C8.428 0 5.54 1.196 3.368 3.368A11.425 11.425 0 0 0 0 11.5c0 3.072 1.196 5.96 3.368 8.132A11.425 11.425 0 0 0 11.5 23c3.072 0 5.96-1.196 8.132-3.368A11.425 11.425 0 0 0 23 11.5c0-3.072-1.196-5.96-3.368-8.132zM4.992 19.285c.379-3.268 3.188-5.79 6.508-5.79 1.75 0 3.396.682 4.634 1.92a6.549 6.549 0 0 1 1.875 3.87 10.106 10.106 0 0 1-6.509 2.367c-2.475 0-4.745-.89-6.509-2.367zm6.508-7.178a3.497 3.497 0 0 1-3.493-3.493A3.497 3.497 0 0 1 11.5 5.121a3.497 3.497 0 0 1 3.493 3.493 3.497 3.497 0 0 1-3.493 3.493zm7.669 6.038a7.901 7.901 0 0 0-2.082-3.683 7.876 7.876 0 0 0-2.877-1.84 4.84 4.84 0 0 0 2.13-4.008 4.846 4.846 0 0 0-4.84-4.84 4.846 4.846 0 0 0-4.84 4.84 4.84 4.84 0 0 0 2.132 4.01 7.881 7.881 0 0 0-2.676 1.641 7.876 7.876 0 0 0-2.286 3.88A10.11 10.11 0 0 1 1.348 11.5c0-5.598 4.554-10.152 10.152-10.152 5.598 0 10.152 4.554 10.152 10.152 0 2.54-.937 4.863-2.483 6.645z"></path>
  </symbol>
  <symbol viewBox="0 0 18 18" fill="none" xmlns="http://www.w3.org/2000/svg" id="ico2">
    <g clip-path="url(#clip0)" fill="#888">
      <path d="M17.866 8.648C17.705 8.47 13.84 4.254 9 4.254S.295 8.469.134 8.648a.529.529 0 0 0 0 .704C.295 9.53 4.16 13.746 9 13.746s8.705-4.215 8.866-4.394a.529.529 0 0 0 0-.704zM9 12.691A3.696 3.696 0 0 1 5.309 9 3.696 3.696 0 0 1 9 5.309 3.696 3.696 0 0 1 12.691 9 3.696 3.696 0 0 1 9 12.691z"></path>
      <path d="M9.527 7.945c0-.53.264-.997.664-1.284A2.602 2.602 0 0 0 9 6.363 2.64 2.64 0 0 0 6.363 9 2.64 2.64 0 0 0 9 11.637c1.302 0 2.379-.95 2.592-2.193a1.573 1.573 0 0 1-2.065-1.499z"></path>
    </g>
    <defs>
      <clipPath id="clip0">
        <path fill="#fff" d="M0 0h18v18H0z"></path>
      </clipPath>
    </defs>
  </symbol>
  <symbol viewBox="0 0 43 44" fill="none" xmlns="http://www.w3.org/2000/svg" id="ico3">
    <path d="M33.985 42.26H8.015V44h25.97v-1.74zM31.435 0h-20.87v1.737h20.87V0zm6.86 2.484l-2.329 2.795h-2.542c.114-1.5.138-2.423.138-2.423H9.954s.024.923.139 2.423H7.552l-2.33-2.795H.63l.064 1.179c.011.186.27 4.626 2.062 9.326 2.428 6.36 6.517 10.1 11.83 10.838 1.472 2.614 3.414 4.536 5.963 5.002h-.056s.168.956.214 2.255a2.17 2.17 0 0 0-1.124 1.893c0 .681.319 1.28.809 1.68-.33 1.336-.962 2.548-2.136 3.165-.512.27-.795.459-.913.59h-1.671l-2.982 3.6h18.143l-2.983-3.6h-1.67c-.119-.13-.402-.319-.915-.59-1.175-.617-1.803-1.83-2.135-3.165a2.16 2.16 0 0 0 .809-1.68c0-.817-.457-1.522-1.124-1.893.044-1.299.213-2.255.213-2.255h-.055c2.548-.466 4.49-2.388 5.96-5.002 5.316-.735 9.405-4.477 11.833-10.838 1.794-4.7 2.054-9.14 2.062-9.326l.064-1.18h-4.597zM3.045 4.72h1.131l2.33 2.795h3.791c.4 3.825 1.262 9.309 3.086 13.78C5.463 19.012 3.485 8.315 3.045 4.72zm18.712 8.446c-3.725 0-6.747-1.328-6.747-2.964 0-1.638 3.02-2.965 6.747-2.965 3.726 0 6.747 1.329 6.747 2.965.002 1.638-3.018 2.964-6.747 2.964zm8.38 8.13c1.822-4.472 2.684-9.956 3.084-13.78h3.794l2.329-2.796h1.13c-.445 3.595-2.42 14.292-10.337 16.575z"
      fill="#fff"></path>
  </symbol>
  <symbol viewBox="0 0 32 32" fill="none" xmlns="http://www.w3.org/2000/svg" id="ico4">
    <path d="M16 32c8.837 0 16-7.163 16-16S24.837 0 16 0 0 7.163 0 16s7.163 16 16 16z" fill="#fff" fill-opacity=".7"></path>
    <path d="M20.022 16.626h-2.855v10.46h-4.325v-10.46h-2.058V12.95h2.058v-2.378c0-1.701.808-4.365 4.364-4.365l3.204.013v3.568h-2.325c-.381 0-.917.191-.917 1.002v2.164H20.4l-.378 3.672z" fill="#00247D"></path>
  </symbol>
  <symbol viewBox="0 0 32 32" fill="none" xmlns="http://www.w3.org/2000/svg" id="ico5">
    <path d="M16 32c8.837 0 16-7.164 16-16 0-8.837-7.163-16-16-16S0 7.163 0 16c0 8.836 7.163 16 16 16z" fill="#fff" fill-opacity=".7"></path>
    <path d="M5.57 16.716c-.056 2.752 1.84 5.38 4.448 6.236 2.457.826 5.478.208 7.113-1.896 1.193-1.474 1.464-3.44 1.335-5.276-2.104-.018-4.208-.012-6.309-.01-.003.75 0 1.497.003 2.247 1.26.035 2.52.018 3.78.044-.318 1.09-1.042 2.104-2.142 2.498-2.123.935-4.831-.287-5.5-2.514-.806-2.133.514-4.706 2.694-5.326 1.35-.476 2.743.06 3.9.762a29.825 29.825 0 0 0 1.672-1.726c-1.314-1.1-3.002-1.773-4.738-1.625-3.405.04-6.385 3.184-6.256 6.586zm16.991-2.836c-.006.628-.013 1.258-.016 1.884-.63.007-1.257.01-1.884.013v1.877c.627.003 1.257.006 1.884.013.006.627.006 1.254.013 1.884.623 0 1.25-.003 1.877 0 .003-.63.006-1.257.013-1.887l1.883-.01v-1.877c-.626-.003-1.256-.006-1.883-.012-.004-.627-.01-1.257-.013-1.884H22.56z"
      fill="#DC4E41"></path>
    <path d="M5.57 16.716c-.129-3.401 2.85-6.545 6.256-6.586 1.736-.148 3.424.526 4.738 1.625a29.927 29.927 0 0 1-1.673 1.726c-1.156-.702-2.548-1.237-3.9-.762-2.18.62-3.5 3.194-2.693 5.326.668 2.227 3.377 3.45 5.5 2.514 1.099-.394 1.824-1.408 2.142-2.498-1.26-.025-2.52-.009-3.78-.044-.003-.75-.006-1.496-.003-2.246 2.1-.003 4.205-.009 6.309.01.13 1.836-.142 3.802-1.336 5.276-1.635 2.104-4.655 2.721-7.112 1.896-2.608-.857-4.504-3.484-4.448-6.237zm16.991-2.836h1.874c.003.628.01 1.258.013 1.884.626.007 1.256.01 1.883.013v1.877l-1.883.01c-.006.63-.01 1.256-.013 1.886-.627-.003-1.254 0-1.877 0-.006-.63-.006-1.256-.013-1.883-.627-.007-1.257-.01-1.884-.013v-1.877c.627-.003 1.254-.007 1.884-.013.003-.626.01-1.256.016-1.883z"
      fill="#00247D"></path>
  </symbol>
  <symbol viewBox="0 0 32 32" fill="none" xmlns="http://www.w3.org/2000/svg" id="ico6">
    <path d="M16 32c8.837 0 16-7.164 16-16 0-8.837-7.163-16-16-16C7.164 0 0 7.163 0 16c0 8.836 7.164 16 16 16z" fill="#fff" fill-opacity=".7"></path>
    <path d="M25.8 11.498a7.63 7.63 0 0 1-2.196.602 3.835 3.835 0 0 0 1.682-2.115 7.656 7.656 0 0 1-2.429.927 3.825 3.825 0 0 0-6.517 3.489 10.856 10.856 0 0 1-7.883-3.996A3.824 3.824 0 0 0 9.64 15.51a3.798 3.798 0 0 1-1.732-.479v.049a3.827 3.827 0 0 0 3.068 3.75 3.813 3.813 0 0 1-1.727.065 3.828 3.828 0 0 0 3.573 2.656 7.673 7.673 0 0 1-5.662 1.584 10.817 10.817 0 0 0 5.862 1.718c7.034 0 10.881-5.827 10.881-10.882 0-.165-.004-.33-.011-.494a7.755 7.755 0 0 0 1.909-1.98z"
      fill="#00247D"></path>
  </symbol>
  <symbol viewBox="0 0 15 15" fill="none" xmlns="http://www.w3.org/2000/svg" id="ico7">
    <path d="M14.905 8.192L13.81 6.454a.623.623 0 0 1-.082-.463l.435-2.007a.622.622 0 0 0-.418-.723l-1.956-.628a.622.622 0 0 1-.36-.302L10.472.515a.622.622 0 0 0-.785-.286l-1.901.776a.623.623 0 0 1-.47 0L5.415.23a.622.622 0 0 0-.785.286L3.673 2.33a.622.622 0 0 1-.36.302l-1.956.628a.622.622 0 0 0-.418.723l.435 2.007a.622.622 0 0 1-.082.463L.197 8.192a.622.622 0 0 0 .146.822l1.622 1.259c.13.1.214.245.236.407l.278 2.034a.62.62 0 0 0 .64.537l2.052-.079a.622.622 0 0 1 .442.16l1.52 1.38a.622.622 0 0 0 .836 0l1.52-1.38a.62.62 0 0 1 .443-.16l2.051.08c.32.012.597-.22.64-.538l.279-2.034a.622.622 0 0 1 .235-.407l1.622-1.259a.622.622 0 0 0 .146-.822zm-9.077 1.817L4.016 8.744l.745 1.726-.497.214-1.142-2.647.52-.224 1.846 1.3-.763-1.768.497-.214 1.142 2.647-.536.231zm1.101-.475L5.787 6.887 7.75 6.04l.193.448-1.429.616.254.587 1.329-.574.192.446-1.329.574.311.72 1.479-.638.192.446-2.013.869zm4.474-1.931l-1.38-1.751.328 2.205-.58.25-1.774-2.374.547-.236 1.184 1.646-.301-2.027.636-.274 1.261 1.648-.391-2.024.538-.232.5 2.924-.568.245z"
      fill="#D1D1D1"></path>
  </symbol>
  <symbol viewBox="0 0 14 16" fill="none" xmlns="http://www.w3.org/2000/svg" id="ico8">
    <path d="M6.657.192c-1.47.155-2.677 1.324-2.895 2.81a3.748 3.748 0 0 0-.019.644c.05 1.012.506 2.03 1.246 2.8.328.342.654.585.998.74.399.184.591.221 1.05.221.36-.003.442-.012.68-.091.492-.158.808-.357 1.225-.756a4.65 4.65 0 0 0 1.287-2.342c.417-1.985-.907-3.824-2.895-4.03A9.675 9.675 0 0 0 6.96.16c-.029.004-.165.016-.304.032z"
      fill="#D1D1D1"></path>
    <path d="M3.146 6.245c-.98.553-1.773 1.51-2.111 2.553-.048.14-.114.39-.152.554-.066.293-.07.379-.08 2.692-.012 2.093-.005 2.415.039 2.605.126.553.505.97 1.049 1.16l.215.073h9.798l.224-.07c.55-.174.942-.6 1.072-1.163.044-.19.05-.512.038-2.605-.01-2.316-.013-2.398-.08-2.692-.218-.968-.6-1.67-1.267-2.34a4.664 4.664 0 0 0-1.112-.837l-.152-.076-.202.31c-.651.983-1.561 1.685-2.538 1.956-.288.08-.36.089-.866.089s-.579-.01-.866-.089c-.993-.275-1.906-.989-2.57-2.007a6.22 6.22 0 0 0-.177-.259c-.003 0-.12.067-.262.146zm6.302 2.75c.18.072.32.227.373.41.041.149.041.218-.01.401-.015.064-2.863 3.8-3.024 3.967a.758.758 0 0 1-.193.155c-.123.066-.414.066-.537.003-.095-.05-1.625-1.314-1.859-1.539-.167-.158-.22-.275-.22-.477 0-.36.268-.632.625-.632.08 0 .19.019.247.044.057.025.382.281.727.569.347.287.638.524.648.521.012 0 .565-.714 1.232-1.586 1.454-1.906 1.3-1.714 1.467-1.808a.588.588 0 0 1 .524-.029z"
      fill="#D1D1D1"></path>
  </symbol>
  <symbol viewBox="0 0 19 19" fill="none" xmlns="http://www.w3.org/2000/svg" id="ico9">
    <path d="M4.068 8.787c-.296.406-.58.816-.83 1.224a.481.481 0 1 0 .818.506c.214-.346.452-.694.7-1.04l.561.56a.48.48 0 0 0 .681.002A.482.482 0 0 0 6 9.357l-.658-.66a20.45 20.45 0 0 1 1.252-1.436l.991.992a.48.48 0 0 0 .681 0 .481.481 0 0 0 0-.681l-.991-.991a20.46 20.46 0 0 1 1.438-1.252l.802.801a.48.48 0 0 0 .681 0 .481.481 0 0 0 0-.68l-.705-.705a19.44 19.44 0 0 1 1.045-.706.482.482 0 0 0-.51-.817c-.428.267-.834.548-1.224.833l-.698-.697a.481.481 0 1 0-.68.68l.604.605A21.3 21.3 0 0 0 6.593 5.9l-.747-.747a.482.482 0 1 0-.68.68l.746.748c-.446.466-.867.944-1.256 1.43l-.6-.601a.481.481 0 1 0-.682.68l.694.697z"
      fill="#587DD8"></path>
    <path d="M17.45 1.034c-.048-.146-.126-.26-.272-.31-.067-.022-.117-.044-.172-.058-1.5-.454-2.977-.694-4.533-.606-.011 0-.014-.06-.025-.06-.302 0-.6.106-.895.143-.295.037-.586.116-.87.173l-.003.016a13.019 13.019 0 0 0-6.728 3.596c-.463.463-.908.96-1.293 1.478C1.506 6.962.642 8.754.321 10.67c0 .595 0 1.189-.321 1.767v.003c0 1.543.162 3.08.608 4.553.02.071.076.139.098.206a.508.508 0 0 0 .327.305c1.295.414 2.642.56 3.995.56.256 0 .522-.084.779-.084.288 0 .58.019.875-.018.015-.002.031.025.047.023.28-.036.56-.065.843-.12 0 0 .001.008.002.007a12.973 12.973 0 0 0 2.763-.861 13.055 13.055 0 0 0 3.969-2.722c1.852-1.852 3.023-4.18 3.52-6.733a9.191 9.191 0 0 0 .153-1.766v-.003c.321-1.618-.038-3.217-.53-4.753zm-5.838.136l.15-.018c.15-.018.301-.029.453-.041a12.926 12.926 0 0 0 4.917 4.914c-.012.144-.023.288-.04.433l-.02.164c-.006.047-.016.094-.023.141a12.135 12.135 0 0 1-3.25-2.325 12.15 12.15 0 0 1-2.32-3.246c.045-.006.088-.016.133-.022zm1.735-.207c.825 0 1.646.153 2.459.33.027.007.054.039.08.045.264.06.528.139.79.216a12.485 12.485 0 0 1 .227.904c.053.241.098.486.136.73l.018.138c.033.23.059.46.078.69l.01.097c.018.248.027.497.03.747v.082c-.774-.482-1.498-1.109-2.16-1.77-.657-.658-1.233-1.245-1.716-2.209h.048zM4.633 4.617a12.022 12.022 0 0 1 5.87-3.24 13.094 13.094 0 0 0 6.362 6.362 12.084 12.084 0 0 1-2.06 4.505c-.052.07-.11.134-.163.202-.314.406-.65.797-1.017 1.164a12.007 12.007 0 0 1-5.87 3.24 13.033 13.033 0 0 0-2.62-3.744 12.966 12.966 0 0 0-3.742-2.619 12.046 12.046 0 0 1 3.24-5.87zm2.003 12.439l-.16.02c-.147.017-.29.028-.435.04a12.915 12.915 0 0 0-4.914-4.914c.012-.145.022-.29.04-.436l.02-.159c.006-.048.016-.096.023-.144a12.015 12.015 0 0 1 3.243 2.324 12.077 12.077 0 0 1 2.325 3.246c-.047.007-.095.017-.142.023zm-1.744.104a12.31 12.31 0 0 1-.776-.033 11.977 11.977 0 0 1-.793-.089c-.035-.004-.07-.008-.105-.014a12.084 12.084 0 0 1-.886-.17c-.25-.057-.5-.12-.749-.194a12.233 12.233 0 0 1-.193-.746l-.034-.151a12.154 12.154 0 0 1-.136-.732l-.018-.131a13.63 13.63 0 0 1-.079-.697l-.008-.09a12.282 12.282 0 0 1-.031-.746l-.001-.081a12.1 12.1 0 0 1 2.154 1.715c.662.66 1.238 1.383 1.72 2.16l-.065-.001z"
      fill="#587DD8"></path>
  </symbol>
  <symbol viewBox="0 0 18 18" fill="none" xmlns="http://www.w3.org/2000/svg" id="ico10">
    <path d="M17.96 5.083l-1.353-2.434a.925.925 0 0 0-.148-1.108.93.93 0 0 0-1.104-.146L12.917.04a.318.318 0 0 0-.38.053L10.22 2.408a.318.318 0 0 0-.082.31l.82 3.004-1.864 1.863a1.12 1.12 0 0 0-.884.306l-.803.803 1.898 1.898.803-.803c.21-.21.326-.49.326-.79 0-.035-.008-.07-.01-.105l1.852-1.853 3.005.82a.319.319 0 0 0 .31-.082l2.315-2.316a.32.32 0 0 0 .052-.38zM10.108 8.21l-.32-.319c-.016-.016-.036-.028-.054-.043l1.804-1.804.002-.001 4.039-4.04c.134-.118.31-.127.428-.01.135.135.091.313 0 .415l-4.05 4.051-1.805 1.805c-.016-.018-.028-.037-.044-.054zM6.99 12.907L5.094 11.01l.706-.706L7.697 12.2l-.706.706zm-4.017.223a1.109 1.109 0 0 0-.06 1.506l-2.82 2.82a.319.319 0 1 0 .451.45l2.82-2.82a1.11 1.11 0 0 0 1.506-.06l.576-.574-1.898-1.898-.575.575zm5.175-1.38L6.25 9.852l.707-.706 1.898 1.898-.707.706zM5.897 14l-1.898-1.897.643-.643 1.898 1.898-.643.643z"
      fill="#587DD8"></path>
  </symbol>
  <symbol viewBox="0 0 17 17" fill="none" xmlns="http://www.w3.org/2000/svg" id="ico11">
    <path d="M8.5 0C3.813 0 0 3.813 0 8.5 0 13.187 3.813 17 8.5 17c4.687 0 8.5-3.813 8.5-8.5C17 3.813 13.187 0 8.5 0zm4.25 9.35h-3.4v3.4h-1.7v-3.4h-3.4v-1.7h3.4v-3.4h1.7v3.4h3.4v1.7z" fill="#878787"></path>
  </symbol>
  <symbol viewBox="0 0 17 17" fill="none" xmlns="http://www.w3.org/2000/svg" id="ico12">
    <path d="M8.5 0C3.813 0 0 3.813 0 8.5 0 13.187 3.813 17 8.5 17c4.687 0 8.5-3.813 8.5-8.5C17 3.813 13.187 0 8.5 0zm4.25 9.35h-8.5v-1.7h8.5v1.7z" fill="#878787"></path>
  </symbol>
  <symbol viewBox="0 0 14 15" fill="none" xmlns="http://www.w3.org/2000/svg" id="ico13">
    <path d="M13.286 9.893c.288-.348.427-.72.41-1.105a1.645 1.645 0 0 0-.384-.957c.192-.45.265-1.16-.374-1.711-.469-.404-1.264-.585-2.366-.535a9.75 9.75 0 0 0-1.45.176H9.12c-.147.025-.303.055-.462.089-.012-.178.02-.62.368-1.617.413-1.186.389-2.093-.077-2.7-.489-.637-1.27-.687-1.5-.687a.759.759 0 0 0-.568.245c-.327.36-.289 1.021-.247 1.327-.39.986-1.48 3.401-2.402 4.072a.31.31 0 0 0-.047.039c-.271.27-.454.562-.578.818a1.273 1.273 0 0 0-.583-.14H1.226C.548 7.208 0 7.729 0 8.366v4.522c0 .64.551 1.158 1.226 1.158h1.797c.262 0 .507-.078.707-.211l.693.077c.106.014 1.991.24 3.927.204.351.025.681.038.987.038.528 0 .988-.039 1.37-.116.902-.181 1.518-.543 1.83-1.075.239-.406.239-.81.2-1.065.587-.501.69-1.055.67-1.445a1.79 1.79 0 0 0-.121-.559zm-12.06 3.4a.42.42 0 0 1-.43-.406V8.363a.42.42 0 0 1 .43-.407h1.797a.42.42 0 0 1 .43.407v4.521a.42.42 0 0 1-.43.407H1.226v.003zM12.53 9.568a.358.358 0 0 0-.053.454c0 .003.121.198.136.465.02.364-.165.687-.554.963a.367.367 0 0 0-.136.428c0 .003.127.37-.08.718-.197.334-.636.573-1.301.707-.534.109-1.259.128-2.148.061h-.042a30.779 30.779 0 0 1-3.83-.197H4.52l-.298-.034c.018-.078.027-.161.027-.245V8.363c0-.12-.02-.237-.056-.346.053-.186.2-.6.548-.954 1.323-.99 2.616-4.333 2.672-4.478a.334.334 0 0 0 .018-.186c-.05-.312-.032-.693.038-.807.156.003.578.044.831.376.3.392.289 1.093-.035 2.023-.495 1.416-.536 2.162-.144 2.49a.672.672 0 0 0 .642.109c.18-.04.35-.072.513-.098l.038-.008c.904-.186 2.525-.3 3.088.184.477.412.138.957.1 1.016a.358.358 0 0 0 .07.484c.004.002.313.278.328.648.011.248-.112.501-.369.751z"
      fill="#494949"></path>
  </symbol>
  <symbol viewBox="0 0 28 28" fill="none" xmlns="http://www.w3.org/2000/svg" id="ico14">
    <path d="M25.889 21.395A13.936 13.936 0 0 0 28 14c0-7.733-6.267-14-14-14C6.268 0 0 6.267 0 14c0 7.734 6.268 14 14 14 2.716 0 5.25-.774 7.397-2.112l6.136 1.644-1.644-6.137zM14 6.53a1.758 1.758 0 1 1 0 3.516 1.758 1.758 0 0 1 0-3.516zm3.076 14.942h-6.152v-2.637h1.318v-5.273h-1.318v-2.636h4.834v7.909h1.318v2.637z"
      fill="#00247D"></path>
  </symbol>
  <symbol viewBox="0 0 13 13" fill="none" xmlns="http://www.w3.org/2000/svg" id="ico15">
    <path d="M6.094 4.875H4.469V6.5h1.625V4.875zm2.437 0H6.906V6.5h1.625V4.875zm2.438 0H9.344V6.5h1.625V4.875zM3.656 7.313H2.031v1.625h1.625V7.312zm2.438 0H4.469v1.625h1.625V7.312zm2.437 0H6.906v1.625h1.625V7.312zm2.438 0H9.344v1.625h1.625V7.312zM3.656 9.75H2.031v1.625h1.625V9.75zm2.438 0H4.469v1.625h1.625V9.75zm2.437 0H6.906v1.625h1.625V9.75z"
      fill="#888"></path>
    <path d="M10.969 1.625V.406A.407.407 0 0 0 10.563 0H8.937a.407.407 0 0 0-.406.406v1.219H4.47V.406A.407.407 0 0 0 4.062 0H2.438a.407.407 0 0 0-.406.406v1.219H.406V13h12.188V1.625h-1.625zM9.344.812h.812v1.625h-.812V.813zm-6.5 0h.812v1.625h-.812V.813zm8.937 11.376H1.22V4.062h10.56v8.125z"
      fill="#888"></path>
  </symbol>
  <symbol viewBox="0 0 25 29" fill="none" xmlns="http://www.w3.org/2000/svg" id="ico16">
    <path d="M24.5 2.797a2.116 2.116 0 0 0-1.612-.74h-2.04v-.635A1.427 1.427 0 0 0 19.418 0H5.584c-.79 0-1.432.638-1.432 1.422v.634h-2.04c-.622 0-1.21.27-1.612.74a2.063 2.063 0 0 0-.473 1.678c.536 3.274 2.61 6.166 5.554 7.753.269.642.574 1.25.913 1.818 1.083 1.81 2.43 3.062 3.913 3.668a3.068 3.068 0 0 1-2.383 3.28l-.009.002a.672.672 0 0 0-.518.652v3.08H6.243a2.023 2.023 0 0 0-2.027 2.013v1.589c0 .37.303.671.676.671h15.28c.374 0 .677-.3.677-.671v-1.59c0-1.11-.91-2.013-2.027-2.013h-1.254v-3.079a.672.672 0 0 0-.52-.652l-.008-.003a3.065 3.065 0 0 1-2.381-3.307c1.457-.615 2.78-1.856 3.847-3.64.34-.567.644-1.176.913-1.818 2.944-1.587 5.018-4.479 5.554-7.753a2.063 2.063 0 0 0-.473-1.677zM1.36 4.259a.72.72 0 0 1 .17-.593.766.766 0 0 1 .582-.268h2.04v1.235c0 1.937.248 3.812.72 5.528C3.019 8.706 1.743 6.593 1.36 4.259zm17.462 21.81c.372 0 .675.3.675.67v.919H5.567v-.918c0-.37.304-.671.676-.671h12.578zm-2.606-3.75v2.407H8.848v-2.408h7.368zm-5.596-1.343c.167-.183.32-.38.457-.593.45-.698.686-1.492.697-2.303a5.427 5.427 0 0 0 1.516-.01 4.403 4.403 0 0 0 1.16 2.906h-3.83zm8.877-16.343c0 3.307-.764 6.406-2.152 8.726-1.323 2.21-3.043 3.428-4.845 3.428-1.801 0-3.522-1.217-4.845-3.428-1.388-2.32-2.152-5.419-2.152-8.726v-3.21a.08.08 0 0 1 .08-.08h13.833a.08.08 0 0 1 .081.08v3.21zm4.142-.374c-.382 2.334-1.658 4.447-3.51 5.901.47-1.715.72-3.59.72-5.527V3.398h2.04c.224 0 .436.098.582.268a.72.72 0 0 1 .168.593z"
      fill="#DAE5FF"></path>
    <path d="M16.964 6.382a.745.745 0 0 0-.594-.522l-2.218-.336-.993-2.097A.733.733 0 0 0 12.5 3a.733.733 0 0 0-.66.427l-.992 2.097-2.218.336a.744.744 0 0 0-.594.522.79.79 0 0 0 .186.786L9.828 8.8l-.38 2.304a.782.782 0 0 0 .293.75.71.71 0 0 0 .774.058l1.985-1.088 1.985 1.088a.711.711 0 0 0 .774-.059.782.782 0 0 0 .292-.75L15.172 8.8l1.606-1.631a.79.79 0 0 0 .186-.786zm-3.095 1.6a.787.787 0 0 0-.211.68l.192 1.17-1.008-.553a.71.71 0 0 0-.684 0l-1.008.553.192-1.17a.787.787 0 0 0-.211-.68l-.816-.828 1.127-.17a.738.738 0 0 0 .554-.42l.504-1.065.504 1.065a.738.738 0 0 0 .554.42l1.127.17-.816.829z"
      fill="#DAE5FF"></path>
  </symbol>
  <symbol viewBox="0 0 20 18" fill="none" xmlns="http://www.w3.org/2000/svg" id="ico17">
    <path d="M18.333 3.167h-4.166v-.834c0-.919-.748-1.666-1.667-1.666h-5c-.92 0-1.667.747-1.667 1.666v.834H1.667C.747 3.167 0 3.914 0 4.833v2.5C0 8.253.747 9 1.667 9h6.666v-.417c0-.23.187-.416.417-.416h2.5c.23 0 .417.186.417.416V9h6.666C19.253 9 20 8.253 20 7.333v-2.5c0-.919-.747-1.666-1.667-1.666zm-5.833 0h-5v-.834h5v.834zm7.269 6.283a.417.417 0 0 0-.437.04 1.645 1.645 0 0 1-.999.343h-6.666v1.25c0 .23-.187.417-.417.417h-2.5a.416.416 0 0 1-.417-.417v-1.25H1.667c-.358 0-.703-.118-.999-.342A.417.417 0 0 0 0 9.823v5.844c0 .919.747 1.666 1.667 1.666h16.666c.92 0 1.667-.747 1.667-1.666V9.823a.417.417 0 0 0-.231-.373z"
      fill="#BCBCBC"></path>
  </symbol>
  <symbol viewBox="0 0 9 9" fill="none" xmlns="http://www.w3.org/2000/svg" id="ico19">
    <path d="M4.5 9A4.505 4.505 0 0 1 0 4.5C0 2.019 2.019 0 4.5 0S9 2.019 9 4.5 6.98 9 4.5 9zm0-8.486A3.99 3.99 0 0 0 .514 4.5 3.99 3.99 0 0 0 4.5 8.485 3.99 3.99 0 0 0 8.485 4.5 3.99 3.99 0 0 0 4.5.514z" fill="#010002"></path>
    <path d="M6.274 4.757H2.726a.257.257 0 1 1 0-.514h3.548a.257.257 0 0 1 0 .514z" fill="#010002"></path>
    <path d="M4.5 6.531a.257.257 0 0 1-.257-.257V2.726a.257.257 0 0 1 .514 0v3.548a.257.257 0 0 1-.257.257z" fill="#010002"></path>
  </symbol>
  <symbol viewBox="0 0 8 6" fill="none" xmlns="http://www.w3.org/2000/svg" id="ico20">
    <path d="M4 0l3.464 6H.536L4 0z" fill="#009B2B"></path>
  </symbol>
  <symbol viewBox="0 0 6 8" fill="none" xmlns="http://www.w3.org/2000/svg" id="ico21">
    <path d="M6 4L0 7.464V.536L6 4z" fill="#9C9C9C"></path>
  </symbol>
  <symbol viewBox="0 0 8 6" fill="none" xmlns="http://www.w3.org/2000/svg" id="ico22">
    <path d="M4 6L.536 0h6.928L4 6z" fill="#CF142B"></path>
  </symbol>
  <symbol viewBox="0 0 15 15" fill="none" xmlns="http://www.w3.org/2000/svg" id="ico-google">
    <g clip-path="url(#clip0)">
      <path d="M3.324 9.065l-.522 1.949-1.908.04A7.466 7.466 0 0 1 0 7.5c0-1.244.302-2.417.839-3.45l1.699.312.744 1.69a4.458 4.458 0 0 0 .042 3.013z" fill="#FBBB00"></path>
      <path d="M14.869 6.099a7.51 7.51 0 0 1-.033 2.967 7.499 7.499 0 0 1-2.64 4.283h-.001l-2.14-.11-.303-1.89a4.47 4.47 0 0 0 1.923-2.283h-4.01V6.099h7.204z" fill="#518EF8"></path>
      <path d="M12.195 13.348A7.468 7.468 0 0 1 7.5 15a7.499 7.499 0 0 1-6.606-3.946l2.43-1.99a4.46 4.46 0 0 0 6.428 2.284l2.443 2z" fill="#28B446"></path>
      <path d="M12.287 1.727l-2.43 1.989A4.46 4.46 0 0 0 3.283 6.05l-2.443-2A7.499 7.499 0 0 1 7.5 0c1.82 0 3.488.648 4.787 1.727z" fill="#F14336"></path>
    </g>
    <defs>
      <clipPath id="clip0">
        <path fill="#fff" d="M0 0h15v15H0z"></path>
      </clipPath>
    </defs>
  </symbol>
  <symbol viewBox="0 0 18 18" fill="none" xmlns="http://www.w3.org/2000/svg" id="ico24">
    <path d="M5.309 15.89c.63 0 1.195-.277 1.582-.716a2.104 2.104 0 0 0 3.164 0c.386.44.952.717 1.582.717 1.163 0 2.11-.947 2.11-2.11a2.112 2.112 0 0 0-1.874-2.096 2.112 2.112 0 0 0-1.582-3.164 2.112 2.112 0 0 0-1.818-3.178 2.112 2.112 0 0 0-1.818 3.178 2.112 2.112 0 0 0-1.874 2.096c0 .39.107.755.292 1.068a2.112 2.112 0 0 0-1.874 2.096c0 1.163.946 2.11 2.11 2.11zm3.164-1.054a1.056 1.056 0 0 1 0-2.11 1.056 1.056 0 0 1 0 2.11zm4.218-1.055a1.056 1.056 0 0 1-2.109 0 1.056 1.056 0 0 1 2.11 0zm-1.582-3.164a1.056 1.056 0 0 1-2.109 0 1.056 1.056 0 0 1 2.11 0zM8.473 6.398a1.056 1.056 0 0 1 0 2.11 1.056 1.056 0 0 1 0-2.11zM6.89 9.563a1.056 1.056 0 0 1 0 2.109 1.056 1.056 0 0 1 0-2.11zm-1.582 3.164a1.056 1.056 0 0 1 0 2.109 1.056 1.056 0 0 1 0-2.11z"
      fill="#587DD8"></path>
    <path d="M2.234 18H18V1.582C18 .71 17.29 0 16.418 0c-.872 0-1.582.71-1.582 1.582v9.446L11.234 3.85a3.07 3.07 0 0 0-2.761-1.706A3.07 3.07 0 0 0 5.712 3.85L.236 14.767A2.236 2.236 0 0 0 2.234 18zm13.657-1.055V4.254h1.054v12.691h-1.054zm.527-15.89c.29 0 .527.236.527.527v1.617h-1.054V1.582c0-.29.236-.527.527-.527zM1.178 15.239L6.656 4.323a2.021 2.021 0 0 1 1.818-1.124c.774 0 1.471.43 1.818 1.124l4.545 9.056v3.566H2.234a1.18 1.18 0 0 1-1.055-1.706z"
      fill="#587DD8"></path>
  </symbol>
  <symbol viewBox="0 0 18 17" fill="none" xmlns="http://www.w3.org/2000/svg" id="ico25">
    <path d="M9 1.018l2.421 4.296.112.199.225.045 4.833.976-3.337 3.63-.155.168.026.227.566 4.898-4.483-2.052L9 13.31l-.208.095-4.484 2.052.567-4.898.026-.227-.155-.169-3.337-3.63 4.833-.975.225-.045.112-.2L9 1.019z" stroke="#FFD400"></path>
  </symbol>
  <symbol viewBox="0 0 18 17" fill="none" xmlns="http://www.w3.org/2000/svg" id="ico26">
    <path d="M9 1.018l2.421 4.296.112.199.225.045 4.833.976-3.337 3.63-.155.168.026.227.566 4.898-4.483-2.052L9 13.31l-.208.095-4.484 2.052.567-4.898.026-.227-.155-.169-3.337-3.63 4.833-.975.225-.045.112-.2L9 1.019z" stroke="#FFD400"></path>
    <path d="M6.242 5.558l.225-.045.112-.2 1.92-3.408V13.54l-4.19 1.918.566-4.898.026-.227-.155-.169-3.337-3.63 4.833-.975z" fill="#FFD400" stroke="#FFD400"></path>
  </symbol>
  <symbol viewBox="0 0 18 17" fill="none" xmlns="http://www.w3.org/2000/svg" id="ico27">
    <path d="M9 0l2.857 5.068 5.703 1.15-3.938 4.284.668 5.78L9 13.86l-5.29 2.421.668-5.78L.44 6.22l5.703-1.15L9 0z" fill="#FFD400"></path>
  </symbol>
  <symbol viewBox="0 0 15 16" fill="none" xmlns="http://www.w3.org/2000/svg" id="ico-facebook">
    <path d="M12.98.099H2.021a2.023 2.023 0 0 0-2.02 2.023v10.972c0 1.118.905 2.024 2.021 2.024h5.404l.01-5.367H6.043a.329.329 0 0 1-.329-.328l-.006-1.73a.328.328 0 0 1 .328-.33h1.39V5.69c0-1.94 1.184-2.996 2.912-2.996h1.418c.182 0 .329.147.329.329v1.459a.329.329 0 0 1-.329.329h-.87c-.94 0-1.122.447-1.122 1.104v1.447h2.065a.33.33 0 0 1 .327.368l-.205 1.73a.329.329 0 0 1-.326.29H9.773l-.009 5.367h3.216A2.023 2.023 0 0 0 15 13.094V2.122A2.023 2.023 0 0 0 12.98.1z"
      fill="#BCBCBC"></path>
  </symbol>
  <symbol viewBox="0 0 17 17" xmlns="http://www.w3.org/2000/svg" id="ico-search">
    <path d="M16.85 16.133l-4.13-4.131a7.22 7.22 0 0 0 1.778-4.753c0-4-3.252-7.249-7.248-7.249C3.25 0 0 3.253 0 7.249c0 3.995 3.253 7.248 7.249 7.248a7.22 7.22 0 0 0 4.753-1.779l4.131 4.131a.497.497 0 0 0 .716 0 .51.51 0 0 0 0-.716zM1.016 7.249a6.238 6.238 0 0 1 6.231-6.231 6.238 6.238 0 0 1 6.231 6.23c0 3.434-2.793 6.235-6.23 6.235a6.241 6.241 0 0 1-6.232-6.234z"></path>
  </symbol>
  <symbol viewBox="0 0 18 14" fill="none" xmlns="http://www.w3.org/2000/svg" id="ico33">
    <path d="M.208 7.692A.748.748 0 0 1 0 7.208c0-.139.07-.346.208-.485l.969-.97a.67.67 0 0 1 .97 0l.068.07 3.808 4.085a.335.335 0 0 0 .485 0L15.785.285h.069a.67.67 0 0 1 .97 0l.968.969a.67.67 0 0 1 0 .97L6.715 13.714a.629.629 0 0 1-.484.208.629.629 0 0 1-.485-.208L.346 7.9l-.138-.208z"
      fill="#00F244"></path>
  </symbol>
  <symbol viewBox="0 0 9 6" fill='none' xmlns="http://www.w3.org/2000/svg" id="ico-arrow_bottom">
    <path d="M1 1l3.5 3L8 1" stroke-width="2" stroke-linecap="round"></path>
  </symbol>
  <symbol viewBox="0 0 13 17" fill="none" xmlns="http://www.w3.org/2000/svg" id="ico35">
    <path d="M12.52 6.375h-1.062V4.958A4.964 4.964 0 0 0 6.5 0a4.964 4.964 0 0 0-4.958 4.958v1.417H.479a.354.354 0 0 0-.354.354v8.854C.125 16.365.76 17 1.542 17h9.916c.782 0 1.417-.635 1.417-1.417V6.73a.354.354 0 0 0-.354-.354zm-4.96 7.398a.355.355 0 0 1-.352.394H5.792a.354.354 0 0 1-.352-.394l.223-2.009a1.401 1.401 0 0 1-.58-1.139 1.418 1.418 0 0 1 2.833 0c0 .458-.216.875-.579 1.14l.223 2.008zm1.773-7.398H3.667V4.958A2.837 2.837 0 0 1 6.5 2.125a2.837 2.837 0 0 1 2.833 2.833v1.417z"
      fill="#BCBCBC"></path>
  </symbol>
  <symbol viewBox="0 0 17 17" fill="none" xmlns="http://www.w3.org/2000/svg" id="ico36">
    <path d="M15.63 6.48l.232-2.23-2.05-.913a.296.296 0 0 1-.15-.15l-.911-2.049-2.23.233a.298.298 0 0 1-.205-.055L8.5 0 6.684 1.316a.298.298 0 0 1-.204.055l-2.23-.233-.912 2.05a.293.293 0 0 1-.15.15l-2.049.911.233 2.23a.296.296 0 0 1-.055.205L0 8.5l1.316 1.816a.296.296 0 0 1 .055.204l-.233 2.23 2.05.913a.3.3 0 0 1 .15.15l.91 2.05 2.232-.234.03-.002c.062 0 .122.02.173.057L8.5 17l1.816-1.316a.295.295 0 0 1 .204-.055l2.231.233.912-2.05a.295.295 0 0 1 .15-.15l2.05-.911-.234-2.23a.294.294 0 0 1 .055-.205L17 8.5l-1.316-1.816a.294.294 0 0 1-.055-.204zm-2.843-.076l-5.851 5.851a.296.296 0 0 1-.418 0L4.01 9.746a.295.295 0 0 1 0-.418l.837-.834a.295.295 0 0 1 .417 0l1.464 1.462 4.806-4.806a.295.295 0 0 1 .418 0l.836.836a.295.295 0 0 1 0 .418z"
      fill="#BCBCBC"></path>
  </symbol>
  <symbol viewBox="0 0 14 14" xmlns="http://www.w3.org/2000/svg" id="ico-star">
    <path d="M13.988 5.407a.251.251 0 0 0-.203-.17l-4.533-.66L7.225.47a.25.25 0 0 0-.45 0L4.749 4.578l-4.533.659a.251.251 0 0 0-.14.427l3.281 3.198-.774 4.515a.251.251 0 0 0 .363.264L7 11.509l4.055 2.132a.25.25 0 0 0 .363-.264l-.774-4.515 3.28-3.198a.25.25 0 0 0 .064-.257z"></path>
  </symbol>
  <symbol viewBox="0 0 21 12" fill="none" xmlns="http://www.w3.org/2000/svg" id="ico39">
    <path d="M2 10l8.5-7 8.5 7" stroke="#587DD8" stroke-width="4" stroke-linecap="round"></path>
  </symbol>
  <symbol viewBox="0 0 8 13" fill="none" xmlns="http://www.w3.org/2000/svg" id="ico40">
    <path d="M.396 6.238c0-.212.081-.423.242-.585L5.716.576a.827.827 0 1 1 1.17 1.17L2.393 6.237l4.493 4.493a.827.827 0 1 1-1.17 1.17L.638 6.822a.825.825 0 0 1-.242-.585z" fill="#494949"></path>
  </symbol>
  <symbol viewBox="0 0 7 7" fill="none" xmlns="http://www.w3.org/2000/svg" id="ico41">
    <path fill-rule="evenodd" clip-rule="evenodd" d="M4.332 3.5l2.496-2.496a.588.588 0 1 0-.832-.832L3.5 2.668 1.004.172a.588.588 0 1 0-.832.832L2.668 3.5.172 5.996a.588.588 0 0 0 .832.832L3.5 4.332l2.496 2.496a.588.588 0 0 0 .832-.832L4.332 3.5z" fill="#494949"></path>
  </symbol>
  <symbol viewBox="0 0 8 5" fill="none" xmlns="http://www.w3.org/2000/svg" id="ico42">
    <path d="M4 4.56a.559.559 0 0 1-.396-.164L.164.956A.56.56 0 1 1 .956.164L4 3.208 7.044.164a.56.56 0 0 1 .792.792l-3.44 3.44A.559.559 0 0 1 4 4.56z" fill="#8D8D8D"></path>
  </symbol>
  <symbol viewBox="0 0 8 6" fill="none" xmlns="http://www.w3.org/2000/svg" id="ico43">
    <path d="M4 5.28a.559.559 0 0 1-.396-.164l-3.44-3.44A.56.56 0 1 1 .956.884L4 3.928 7.044.884a.56.56 0 0 1 .792.792l-3.44 3.44A.559.559 0 0 1 4 5.28z" fill="#494949"></path>
  </symbol>
  <symbol viewBox="0 0 25 29" fill="none" xmlns="http://www.w3.org/2000/svg" id="ico44">
    <path d="M24.5 2.797a2.116 2.116 0 0 0-1.612-.74h-2.04v-.635A1.427 1.427 0 0 0 19.418 0H5.584c-.79 0-1.432.638-1.432 1.422v.634h-2.04c-.622 0-1.21.27-1.612.74a2.063 2.063 0 0 0-.473 1.678c.536 3.274 2.61 6.166 5.554 7.753.269.642.574 1.25.913 1.818 1.083 1.81 2.43 3.062 3.913 3.668a3.068 3.068 0 0 1-2.383 3.28l-.009.002a.672.672 0 0 0-.518.652v3.08H6.243a2.023 2.023 0 0 0-2.027 2.013v1.589c0 .37.303.671.676.671h15.28c.374 0 .677-.3.677-.671v-1.59c0-1.11-.91-2.013-2.027-2.013h-1.254v-3.079a.672.672 0 0 0-.52-.652l-.008-.003a3.065 3.065 0 0 1-2.381-3.307c1.457-.615 2.78-1.856 3.847-3.64.34-.567.644-1.176.913-1.818 2.944-1.587 5.018-4.479 5.554-7.753a2.063 2.063 0 0 0-.473-1.677zM1.36 4.259a.72.72 0 0 1 .17-.593.766.766 0 0 1 .582-.268h2.04v1.235c0 1.937.248 3.812.72 5.528C3.019 8.706 1.743 6.593 1.36 4.259zm17.462 21.81c.372 0 .675.3.675.67v.919H5.567v-.918c0-.37.304-.671.676-.671h12.578zm-2.606-3.75v2.407H8.848v-2.408h7.368zm-5.596-1.343c.167-.183.32-.38.457-.593.45-.698.686-1.492.697-2.303a5.427 5.427 0 0 0 1.516-.01 4.403 4.403 0 0 0 1.16 2.906h-3.83zm8.877-16.343c0 3.307-.764 6.406-2.152 8.726-1.323 2.21-3.043 3.428-4.845 3.428-1.801 0-3.522-1.217-4.845-3.428-1.388-2.32-2.152-5.419-2.152-8.726v-3.21a.08.08 0 0 1 .08-.08h13.833a.08.08 0 0 1 .081.08v3.21zm4.142-.374c-.382 2.334-1.658 4.447-3.51 5.901.47-1.715.72-3.59.72-5.527V3.398h2.04c.224 0 .436.098.582.268a.72.72 0 0 1 .168.593z"
      fill="#DAE5FF"></path>
  </symbol>
  <symbol viewBox="0 0 25 25" fill="none" xmlns="http://www.w3.org/2000/svg" id="ico45">
    <path d="M24.856 7.357l-5.23-7.06a.733.733 0 0 0-1.177 0l-5.23 7.06a.732.732 0 0 0 .588 1.168h1.883v3.54a2.674 2.674 0 0 0-1.229-.297h-1.307a2.697 2.697 0 0 0-2.694 2.693v1.527a2.675 2.675 0 0 0-1.229-.298H7.924a2.697 2.697 0 0 0-2.694 2.694v1.526a2.678 2.678 0 0 0-1.229-.297H2.694A2.697 2.697 0 0 0 0 22.306v1.962c0 .404.328.732.732.732h20.92a.732.732 0 0 0 .733-.732V8.525h1.883a.733.733 0 0 0 .588-1.168zM1.465 22.307a1.23 1.23 0 0 1 1.229-1.23H4a1.23 1.23 0 0 1 1.229 1.23v1.228H1.465v-1.229zm5.23 0v-3.923a1.23 1.23 0 0 1 1.229-1.23H9.23a1.23 1.23 0 0 1 1.229 1.23v5.151H6.695v-1.229zm5.23-3.923V14.46a1.23 1.23 0 0 1 1.229-1.229h1.307a1.23 1.23 0 0 1 1.229 1.23v9.073h-3.765v-5.151zM21.652 7.06a.732.732 0 0 0-.732.732v15.742h-3.765V7.793a.733.733 0 0 0-.733-.732h-1.16l3.775-5.098 3.777 5.098h-1.162z"
      fill="#DAE5FF"></path>
  </symbol>
  <symbol viewBox="0 0 14 14" fill="none" xmlns="http://www.w3.org/2000/svg" id="ico46">
    <path d="M7 0C3.15 0 0 3.15 0 7s3.15 7 7 7 7-3.15 7-7-3.15-7-7-7zm2.45 4.2c.56 0 1.05.49 1.05 1.05S10.01 6.3 9.45 6.3 8.4 5.81 8.4 5.25 8.89 4.2 9.45 4.2zm-4.9 0c.56 0 1.05.49 1.05 1.05S5.11 6.3 4.55 6.3 3.5 5.81 3.5 5.25 3.99 4.2 4.55 4.2zm2.45 7c-1.82 0-3.36-1.19-3.92-2.8h7.84c-.56 1.61-2.1 2.8-3.92 2.8z"
      fill="#009B2B"></path>
  </symbol>
  <symbol viewBox="0 0 18 18" fill="none" xmlns="http://www.w3.org/2000/svg" id="ico47">
    <path d="M5.614.659a8.947 8.947 0 0 0-2.978 1.977A8.972 8.972 0 0 0 0 9a8.968 8.968 0 0 0 2.636 6.364A8.962 8.962 0 0 0 9 18a8.977 8.977 0 0 0 6.364-2.636A8.969 8.969 0 0 0 18 9a8.977 8.977 0 0 0-2.636-6.364A8.975 8.975 0 0 0 9 0a8.976 8.976 0 0 0-3.386.659zm-3.365 12.13a6.178 6.178 0 0 1-1.186-.955 8.485 8.485 0 0 1-.274-4.728c.168-.332.36-.65.576-.956.067-.095.13-.193.2-.284l2.032 1.201v.051a15.645 15.645 0 0 0 .327 3.246l.002.012-1.575 2.47a1.236 1.236 0 0 1-.102-.057zm6.04 4.175c.35.179.71.33 1.08.453a8.44 8.44 0 0 1-4.566-1.107l3.405.607a.954.954 0 0 0 .08.047zm-.013-.615l-4.018-.716c-.47-.57-.893-1.174-1.256-1.82-.093-.164-.196-.323-.274-.495L4.3 10.851l.118.03c.984.263 1.986.45 2.995.597l.15.02 1.887 3.261c-.328.46-.659.918-.997 1.37a3.937 3.937 0 0 1-.178.22zm6.684-1.389c-.32.32-.659.609-1.014.866a7.712 7.712 0 0 0-.304-1.384l2.012-3.755a9.402 9.402 0 0 0 1.586-.893.707.707 0 0 0 .16-.154 8.386 8.386 0 0 1-2.44 5.32zm-.089-4.87c.075.143.149.288.223.434L13.15 14.15l-.033.007c-1.05.196-2.11.3-3.178.305l-1.94-3.354c.301-.56.6-1.124.897-1.687.202-.382.4-.766.598-1.15l4.015-.413c.491.721.957 1.458 1.362 2.233zm-.814-4.3c-.19.502-.395 1-.598 1.5l-3.91.401a3.193 3.193 0 0 0-.147-.18c-.462-.523-.927-1.043-1.391-1.564a.058.058 0 0 1 .013-.014L7.46 5.37l1.09-3.278c.074-.02.15-.037.226-.045.592-.06 1.185-.128 1.778-.163.364-.02.73-.032 1.099-.006l2.694 3.037c-.093.293-.184.587-.291.873zm.903-2.75a8.391 8.391 0 0 1 1.726 2.498 8.556 8.556 0 0 0-1.607-.863 4.846 4.846 0 0 0-.27-.1l-2.652-2.99c.018-.128.028-.258.032-.388A8.389 8.389 0 0 1 14.96 3.04zm-8.659-2c.01.008.015.014.021.016A6.74 6.74 0 0 1 8 1.94L6.983 5.003a.109.109 0 0 0-.016.005c-.208.086-.42.164-.625.257-.844.384-1.668.809-2.443 1.318L1.89 5.396a.607.607 0 0 1 .036-.183c.134-.36.267-.72.42-1.073a8.04 8.04 0 0 1 .397-.789A8.38 8.38 0 0 1 6.32 1.01a.583.583 0 0 0-.019.031z"
      fill="#587DD8"></path>
  </symbol>
  <symbol viewBox="0 0 19 19" fill="none" xmlns="http://www.w3.org/2000/svg" id="ico48">
    <path d="M18.039 8.358l-.001-.009a8.86 8.86 0 0 0-2.202-5.26 6.687 6.687 0 0 0-.41-.444A8.999 8.999 0 0 0 9.732.029h-.006c-.01-.002-.018-.004-.027-.004a9.02 9.02 0 0 0-6.765 2.343c-.098.085-.196.18-.286.269A9.022 9.022 0 0 0 .024 9.685c0 .01.003.02.003.029a8.987 8.987 0 0 0 2.605 5.701c.163.162.304.293.432.4a8.867 8.867 0 0 0 5.302 2.227 9.046 9.046 0 0 0 7.068-2.636 1.42 1.42 0 0 0 .111-.12 9.033 9.033 0 0 0 2.497-6.9c0-.01-.003-.019-.003-.028zM3.462 3.451a5.55 5.55 0 0 1 .24-.226A7.875 7.875 0 0 1 9.03 1.152l.07.002a7.739 7.739 0 0 1-.155 1.628L8.72 2.74a.575.575 0 1 0-.215 1.13l.129.025a7.72 7.72 0 0 1-.666 1.38l-.18-.105a.576.576 0 1 0-.585.992l.1.059a7.348 7.348 0 0 1-.513.569c-.04.04-.083.083-.147.14-.16.15-.325.292-.495.429l-.13-.16a.575.575 0 1 0-.89.732l.069.084c-.442.26-.908.472-1.394.639l-.067-.191a.575.575 0 1 0-1.085.385l.036.104a7.862 7.862 0 0 1-1.533.135 7.871 7.871 0 0 1 2.308-5.636zm-.015 11.15a7.838 7.838 0 0 1-2.201-4.358 9.014 9.014 0 0 0 1.827-.194l.118.335a.576.576 0 0 0 1.087-.38l-.093-.264a8.734 8.734 0 0 0 1.745-.83l.229.28a.575.575 0 1 0 .893-.726l-.175-.214a8.21 8.21 0 0 0 .537-.467c.065-.056.13-.12.188-.178.252-.25.481-.52.7-.797l.307.182a.572.572 0 0 0 .788-.204A.576.576 0 0 0 9.193 6l-.233-.14c.336-.554.607-1.14.814-1.75l.338.063a.576.576 0 0 0 .213-1.132l-.248-.047c.116-.576.177-1.16.178-1.748a7.858 7.858 0 0 1 4.358 2.212c.122.122.234.24.351.38a7.722 7.722 0 0 1 1.86 3.988c-.579 0-1.154.058-1.72.17l-.04-.215a.577.577 0 0 0-1.133.212l.056.3a8.87 8.87 0 0 0-1.772.809l-.112-.191a.576.576 0 0 0-.992.585l.154.262a8.808 8.808 0 0 0-.794.692c-.085.08-.165.162-.221.23a9.131 9.131 0 0 0-.441.51l-.168-.137a.575.575 0 1 0-.728.892l.234.19a8.772 8.772 0 0 0-.835 1.766l-.21-.074a.576.576 0 1 0-.383 1.085l.288.102a8.879 8.879 0 0 0-.193 1.808 7.736 7.736 0 0 1-3.998-1.88 5.768 5.768 0 0 1-.368-.342zm11.25-.094a.41.41 0 0 0-.044.052l-.052.053a7.868 7.868 0 0 1-5.633 2.302 7.772 7.772 0 0 1 .131-1.515l.16.056a.576.576 0 0 0 .38-1.087l-.241-.085c.167-.492.382-.965.645-1.414l.129.105a.575.575 0 0 0 .729-.891l-.2-.164a8.402 8.402 0 0 1 .573-.642 8.14 8.14 0 0 1 .58-.521l.087.146a.575.575 0 1 0 .991-.586l-.131-.223c.444-.266.91-.489 1.4-.66l.03.161a.576.576 0 0 0 1.132-.212l-.047-.253a7.71 7.71 0 0 1 1.597-.148 7.884 7.884 0 0 1-2.215 5.526z"
      fill="#587DD8"></path>
  </symbol>
  <symbol viewBox="0 0 19 19" fill="none" xmlns="http://www.w3.org/2000/svg" id="ico49">
    <path d="M19 7.236a5.015 5.015 0 0 0-5.01-5.01h-.29A5.009 5.009 0 0 0 9.538 0H6.123a5.015 5.015 0 0 0-5.01 5.01v1.113c0 .404.085.794.249 1.152C.732 7.688 0 8.475 0 9.902c0 1.306.649 2.518 1.735 3.242l1.605 1.07v2.485h4.527V19h8.906v-2.691C18.291 13.983 19 11.687 19 9.095V7.236zM1.113 9.902c0-.774.29-1.334.884-1.713.508-.323 1.065-.396 1.22-.396h2.35c.613 0 1.113.5 1.113 1.113 0 .614-.5 1.114-1.114 1.114H3.34v1.113h2.226a2.23 2.23 0 0 0 2.227-2.227h.63A3.9 3.9 0 0 0 12.32 5.01v-.557h-1.113v.557a2.786 2.786 0 0 1-2.783 2.783h-.93A2.227 2.227 0 0 0 5.565 6.68H3.217c-.183 0-.488.034-.84.135a1.658 1.658 0 0 1-.15-.692V5.01a3.9 3.9 0 0 1 3.896-3.897h3.414a3.9 3.9 0 0 1 3.897 3.897v1.858c0 2.324-.628 4.394-1.972 6.491H4.065l-1.712-1.141a2.778 2.778 0 0 1-1.24-2.316zm3.34 5.684v-1.113h6.754v1.113H4.453zm11.207 2.3H8.98V16.7h6.68v1.188zm2.227-8.791c0 2.323-.628 4.393-1.972 6.49H12.32v-1.503a14.174 14.174 0 0 0 1.54-3.075 3.897 3.897 0 0 0 2.913-3.771V6.68H15.66v.556c0 1.035-.56 1.947-1.415 2.427.203-.902.302-1.828.302-2.795V5.01c0-.582-.1-1.14-.283-1.66a3.901 3.901 0 0 1 3.623 3.886v1.859z"
      fill="#587DD8"></path>
  </symbol>
  <symbol viewBox="0 0 13 15" fill="none" xmlns="http://www.w3.org/2000/svg" id="ico50">
    <path d="M12.548 5.106c.053-.142.103-.334.117-.556.02-.393-.078-.944-.632-1.445a1.7 1.7 0 0 0-.189-1.066c-.298-.534-.88-.896-1.73-1.077C9.542.84 8.793.815 7.886.884c-1.829-.036-3.61.19-3.71.204l-.654.077a1.155 1.155 0 0 0-.668-.211H1.158C.518.954 0 1.474 0 2.112v4.522c0 .64.52 1.158 1.158 1.158h1.697c.2 0 .387-.05.551-.14.117.257.29.549.546.819a.298.298 0 0 0 .044.039c.874.67 1.904 3.086 2.268 4.071-.036.306-.072.969.234 1.328a.695.695 0 0 0 .537.244c.215 0 .955-.05 1.417-.687.437-.607.462-1.514.072-2.7-.328-.996-.359-1.438-.348-1.616.15.033.298.064.44.089h.003c.025.005.637.142 1.369.175 1.04.05 1.795-.13 2.235-.534.606-.554.534-1.26.353-1.712.156-.203.345-.534.362-.957.011-.384-.117-.754-.39-1.105zM2.855 7.043H1.158a.407.407 0 0 1-.407-.406V2.114c0-.225.184-.406.407-.406h1.697c.226 0 .407.184.407.406v4.523a.405.405 0 0 1-.407.406zm8.953.27c0 .003.097.156.13.365a.68.68 0 0 1-.225.65c-.531.485-2.062.374-2.916.184a14.934 14.934 0 0 1-.52-.106.607.607 0 0 0-.607.11c-.37.328-.329 1.073.136 2.49.306.93.317 1.63.034 2.023-.24.331-.635.373-.785.376-.067-.111-.087-.493-.036-.807a.426.426 0 0 0-.017-.187c-.053-.142-1.275-3.487-2.524-4.477a2.361 2.361 0 0 1-.518-.955c.034-.108.053-.225.053-.345v-4.52c0-.083-.008-.166-.025-.244l.281-.034h.003A27.427 27.427 0 0 1 7.89 1.64h.039c.843-.067 1.525-.048 2.028.06.624.134 1.036.368 1.225.7.197.342.089.695.08.728a.367.367 0 0 0 .129.426c.823.618.445 1.339.395 1.428a.367.367 0 0 0 .05.454c.24.25.356.5.348.745-.011.365-.292.638-.312.654a.367.367 0 0 0-.064.479z"
      fill="#494949"></path>
  </symbol>
  <symbol viewBox="0 0 12 12" xmlns="http://www.w3.org/2000/svg" id="ico-close">
    <path d="M7.061 6.001l4.72-4.719a.75.75 0 1 0-1.062-1.06L6 4.94 1.281.221A.75.75 0 1 0 .22 1.282l4.719 4.72-4.72 4.718a.75.75 0 1 0 1.062 1.061l4.72-4.719 4.718 4.72a.748.748 0 0 0 1.061 0 .75.75 0 0 0 0-1.062L7.061 6z"></path>
  </symbol>
  <symbol viewBox="0 0 19 17" fill="none" xmlns="http://www.w3.org/2000/svg" id="ico52">
    <path d="M.675 10.236a.675.675 0 1 0 0 1.35h4.422l-1.22-1.35H.676zm18.297.677l-.6-3.128a2.92 2.92 0 0 0-1.922-2.22l-.865-1.712a.675.675 0 1 0-1.257.136l-.495 1.92c-.65.443-.852.88-1.246 1.555.485.193.82.612.922 1.1.537-.923.826-1.722 1.835-1.81a1.59 1.59 0 0 1 1.701 1.285l.6 3.129a.168.168 0 0 1-.296.137L16.154 9.82a.676.676 0 0 0-1.053.846c1.125 1.397 1.563 2.28 2.72 2.014.8-.184 1.306-.96 1.151-1.767zm-7.364-.584l-.592-.17-.045.077H9.337l.441.489c.225.25.378.547.458.862h1.123c.24 0 .462-.128.583-.335l.546-.937c-.276.088-.58.1-.88.014zm-.051-7.045A1.56 1.56 0 0 0 9.382 1.05a1.558 1.558 0 1 0 2.175 2.233z"
      fill="#587DD8"></path>
    <path d="M12.26 8.057l-2.254-.646-.65-2.107.38.622a1.343 1.343 0 0 0-.285-1.43l-.4-.41a1.34 1.34 0 0 0-1.898-.025L4.434 6.71A1.863 1.863 0 0 0 4.4 9.34c.658.675.137.115 2.753 3.012l-.747 2.762a1.013 1.013 0 0 0 1.956.53l.89-3.297c.09-.332.005-.688-.225-.943l-2.22-2.458c.859-.836.642-.626 1.044-1.018l-.108-2.126.784 2.542c.084.273.3.484.574.563l2.693.772a.841.841 0 0 0 1.044-.578.844.844 0 0 0-.578-1.044z"
      fill="#587DD8"></path>
  </symbol>
  <symbol viewBox="0 0 16 16" fill="none" xmlns="http://www.w3.org/2000/svg" id="ico54">
    <path d="M13.657 13.657a7.999 7.999 0 0 0 0-11.314 7.999 7.999 0 0 0-11.314 0 7.999 7.999 0 0 0 0 11.314 8 8 0 0 0 11.314 0zm-8.525-6.88l1.799 1.8 3.94-3.938 1.395 1.394L8.328 9.97l-1.397 1.395L5.537 9.97l-1.8-1.799 1.395-1.394z" fill="#009B2B"></path>
  </symbol>
  <symbol viewBox="0 0 13 17" fill="none" xmlns="http://www.w3.org/2000/svg" id="ico55">
    <path d="M12.52 6.375h-1.062V4.958A4.964 4.964 0 0 0 6.5 0a4.964 4.964 0 0 0-4.958 4.958v1.417H.479a.354.354 0 0 0-.354.354v8.854C.125 16.365.76 17 1.542 17h9.916c.782 0 1.417-.635 1.417-1.417V6.73a.354.354 0 0 0-.354-.354zm-4.96 7.398a.355.355 0 0 1-.352.394H5.792a.354.354 0 0 1-.352-.394l.223-2.009a1.401 1.401 0 0 1-.58-1.139 1.418 1.418 0 0 1 2.833 0c0 .458-.216.875-.579 1.14l.223 2.008zm1.773-7.398H3.667V4.958A2.837 2.837 0 0 1 6.5 2.125a2.837 2.837 0 0 1 2.833 2.833v1.417z"
      fill="#BCBCBC"></path>
  </symbol>
  <symbol viewBox="0 0 15 15" fill="none" xmlns="http://www.w3.org/2000/svg" id="ico-twitter">
    <g clip-path="url(#clip0)">
      <path d="M14.761 2.713a5.962 5.962 0 0 1-1.034.349 3.23 3.23 0 0 0 .851-1.356.17.17 0 0 0-.247-.197 5.967 5.967 0 0 1-1.581.653.42.42 0 0 1-.376-.093 3.234 3.234 0 0 0-2.14-.808c-.34 0-.686.054-1.024.159a3.133 3.133 0 0 0-2.112 2.257c-.095.4-.12.8-.076 1.19a.12.12 0 0 1-.13.13 8.48 8.48 0 0 1-5.828-3.112.17.17 0 0 0-.277.021 3.231 3.231 0 0 0-.438 1.626c0 .877.352 1.703.964 2.305a2.898 2.898 0 0 1-.738-.285.17.17 0 0 0-.251.145 3.238 3.238 0 0 0 1.889 2.984 2.94 2.94 0 0 1-.614-.052.17.17 0 0 0-.193.218 3.241 3.241 0 0 0 2.56 2.205 5.968 5.968 0 0 1-3.342 1.014H.25a.248.248 0 0 0-.242.187.256.256 0 0 0 .122.283 8.876 8.876 0 0 0 4.46 1.203c1.371 0 2.654-.272 3.812-.809a8.416 8.416 0 0 0 2.789-2.09 9.163 9.163 0 0 0 1.707-2.86c.38-1.014.58-2.096.58-3.13v-.049a.55.55 0 0 1 .207-.428c.496-.404.93-.879 1.286-1.412.094-.14-.055-.317-.21-.248z"
        fill="#C4C4C4"></path>
    </g>
    <defs>
      <clipPath id="clip0">
        <path fill="#fff" d="M0 0h15v15H0z"></path>
      </clipPath>
    </defs>
  </symbol>
  <symbol viewBox="0 0 25 32" fill="none" xmlns="http://www.w3.org/2000/svg" id="ico57">
    <path d="M9.583 10.935a.755.755 0 0 0-1.06-.038L6.098 13.22l-1.022-1.066a.755.755 0 0 0-1.061-.038.803.803 0 0 0 0 1.104l1.553 1.6a.68.68 0 0 0 .53.229c.2-.003.39-.085.53-.229l2.955-2.818a.727.727 0 0 0 0-1.067zm10.871 1.638h-8.712a.76.76 0 0 0-.758.762c0 .42.34.762.758.762h8.712a.76.76 0 0 0 .758-.762.76.76 0 0 0-.758-.762z"
      fill="#DAE5FF"></path>
    <path d="M21.818 4.193H18.94V2.897c0-.419-.454-.609-.87-.609h-2.236C15.303.764 13.977.002 12.463.002A3.447 3.447 0 0 0 9.09 2.288H6.894c-.417 0-.833.19-.833.61v1.295H3.18A3.228 3.228 0 0 0 0 7.278v21.827C0 30.78 1.515 32 3.182 32h18.636C23.485 32 25 30.78 25 29.105V7.278a3.228 3.228 0 0 0-3.182-3.085zM7.576 3.812h2.083a.835.835 0 0 0 .72-.686 2.2 2.2 0 0 1 2.083-1.714c.993.03 1.837.738 2.046 1.714a.836.836 0 0 0 .757.686h2.16v3.047h-9.85V3.812zm15.909 25.293c0 .838-.834 1.371-1.667 1.371H3.182c-.834 0-1.667-.533-1.667-1.371V7.278a1.708 1.708 0 0 1 1.667-1.562H6.06V7.66c.04.427.407.746.833.724h11.174a.834.834 0 0 0 .871-.724V5.716h2.88a1.71 1.71 0 0 1 1.666 1.562v21.827z"
      fill="#DAE5FF"></path>
    <path d="M9.583 17.03a.755.755 0 0 0-1.06-.038l-2.425 2.323-1.022-1.066a.755.755 0 0 0-1.061-.038.803.803 0 0 0 0 1.104l1.553 1.6a.68.68 0 0 0 .53.229c.2-.003.39-.085.53-.229l2.955-2.819a.727.727 0 0 0 0-1.066zm10.871 1.638h-8.712a.76.76 0 0 0-.758.762c0 .42.34.761.758.761h8.712a.76.76 0 0 0 .758-.761.76.76 0 0 0-.758-.762zM9.583 23.124a.755.755 0 0 0-1.06-.038L6.098 25.41l-1.022-1.067a.755.755 0 0 0-1.061-.038.803.803 0 0 0 0 1.105l1.553 1.6a.68.68 0 0 0 .53.228c.2-.002.39-.085.53-.228l2.955-2.819a.727.727 0 0 0 0-1.067zm10.871 1.638h-8.712a.76.76 0 0 0-.758.762c0 .421.34.762.758.762h8.712a.76.76 0 0 0 .758-.762.76.76 0 0 0-.758-.762z"
      fill="#DAE5FF"></path>
  </symbol>
  <symbol viewBox="0 0 19 17" fill="none" xmlns="http://www.w3.org/2000/svg" id="XMLID 505">
    <path d="M.675 10.236a.675.675 0 1 0 0 1.35h4.422l-1.22-1.35H.676zm18.297.677l-.6-3.128a2.92 2.92 0 0 0-1.922-2.22l-.865-1.712a.675.675 0 1 0-1.257.136l-.495 1.92c-.65.443-.852.88-1.246 1.555.485.193.82.612.922 1.1.537-.923.826-1.722 1.835-1.81a1.59 1.59 0 0 1 1.701 1.285l.6 3.129a.168.168 0 0 1-.296.137L16.154 9.82a.676.676 0 0 0-1.053.846c1.125 1.397 1.563 2.28 2.72 2.014.8-.184 1.306-.96 1.151-1.767zm-7.364-.584l-.592-.17-.045.077H9.337l.441.489c.225.25.378.547.458.862h1.123c.24 0 .462-.128.583-.335l.546-.937c-.276.088-.58.1-.88.014zm-.051-7.045A1.56 1.56 0 0 0 9.382 1.05a1.558 1.558 0 1 0 2.175 2.233z"
      fill="#587DD8"></path>
    <path d="M12.26 8.057l-2.254-.646-.65-2.107.38.622a1.343 1.343 0 0 0-.285-1.43l-.4-.41a1.34 1.34 0 0 0-1.898-.025L4.434 6.71A1.863 1.863 0 0 0 4.4 9.34c.658.675.137.115 2.753 3.012l-.747 2.762a1.013 1.013 0 0 0 1.956.53l.89-3.297c.09-.332.005-.688-.225-.943l-2.22-2.458c.859-.836.642-.626 1.044-1.018l-.108-2.126.784 2.542c.084.273.3.484.574.563l2.693.772a.841.841 0 0 0 1.044-.578.844.844 0 0 0-.578-1.044z"
      fill="#587DD8"></path>
  </symbol>
</svg>